<svg width="24" height="24" viewBox="0 0 24 24" fill="none" xmlns="http://www.w3.org/2000/svg">
<path d="M2.63068 17.1818H1L4.66406 7H6.43892L10.103 17.1818H8.4723L5.59375 8.84943H5.5142L2.63068 17.1818ZM2.90412 13.1946H8.19389V14.4872H2.90412V13.1946Z" fill="#101010"/>
<path d="M12.1016 17.1818V7H15.7308C16.523 7 17.1792 7.14418 17.6996 7.43253C18.2199 7.72088 18.6094 8.11529 18.8679 8.61577C19.1264 9.11293 19.2557 9.67306 19.2557 10.2962C19.2557 10.9226 19.1248 11.486 18.8629 11.9865C18.6044 12.4837 18.2133 12.8781 17.6896 13.1697C17.1693 13.4581 16.5147 13.6023 15.7259 13.6023H13.2301V12.2997H15.5866C16.0871 12.2997 16.4931 12.2135 16.8047 12.0412C17.1162 11.8655 17.3449 11.6269 17.4908 11.3253C17.6366 11.0237 17.7095 10.6806 17.7095 10.2962C17.7095 9.9117 17.6366 9.57031 17.4908 9.27202C17.3449 8.97372 17.1146 8.74006 16.7997 8.57102C16.4882 8.40199 16.0772 8.31747 15.5668 8.31747H13.6378V17.1818H12.1016Z" fill="#101010"/>
<path d="M22.794 7V17.1818H21.2578V7H22.794Z" fill="#101010"/>
</svg>
