<svg width="24" height="24" viewBox="0 0 24 24" fill="none" xmlns="http://www.w3.org/2000/svg">
<path d="M16.6992 18.9801H7.29922C6.87922 18.9801 6.40922 18.6501 6.26922 18.2501L2.12922 6.67011C1.53922 5.01011 2.22922 4.50011 3.64922 5.52011L7.54922 8.31011C8.19922 8.76011 8.93922 8.53011 9.21922 7.80011L10.9792 3.11011C11.5392 1.61011 12.4692 1.61011 13.0292 3.11011L14.7892 7.80011C15.0692 8.53011 15.8092 8.76011 16.4492 8.31011L20.1092 5.70011C21.6692 4.58011 22.4192 5.15011 21.7792 6.96011L17.7392 18.2701C17.5892 18.6501 17.1192 18.9801 16.6992 18.9801Z" stroke="#101010" stroke-width="1.5" stroke-linecap="round" stroke-linejoin="round"/>
<path d="M6.5 22H17.5" stroke="#101010" stroke-width="1.5" stroke-linecap="round" stroke-linejoin="round"/>
<path d="M9.5 14H14.5" stroke="#101010" stroke-width="1.5" stroke-linecap="round" stroke-linejoin="round"/>
</svg>
