<svg width="24" height="24" viewBox="0 0 24 24" fill="none" xmlns="http://www.w3.org/2000/svg">
<path d="M20.0393 20.2042C21.6786 18.3587 22.5498 16.2238 22.7372 13.7395C22.222 13.7395 21.7124 13.7451 21.2018 13.7358C21.0182 13.732 20.8299 13.7123 20.6529 13.6646C20.326 13.5756 20.1199 13.2964 20.1517 13.0294C20.1892 12.7175 20.4946 12.4308 20.8178 12.4252C21.3021 12.4177 21.7854 12.4233 22.2697 12.4224C22.4215 12.4224 22.5733 12.4224 22.7306 12.4224C22.5648 9.9409 21.6768 7.81255 20.0421 5.93808C19.8501 6.12824 19.6758 6.30154 19.5025 6.47484C19.2374 6.73901 18.9798 7.01255 18.7044 7.26642C18.4552 7.49592 18.1039 7.53902 17.8866 7.39569C17.5615 7.18117 17.496 6.71185 17.7695 6.42145C18.1011 6.06922 18.4515 5.7348 18.7925 5.39194C18.9011 5.28234 19.0051 5.16899 19.1391 5.02847C17.288 3.40692 15.1606 2.52355 12.7053 2.32683C12.6894 2.43362 12.6613 2.53573 12.6604 2.6369C12.6557 3.07437 12.6585 3.5109 12.6585 3.94838C12.6585 4.04205 12.6632 4.13573 12.6566 4.22941C12.6285 4.62379 12.3128 4.94791 11.9784 4.93198C11.6524 4.91606 11.3582 4.6088 11.3461 4.23315C11.3311 3.76571 11.3423 3.29638 11.3414 2.828C11.3414 2.6753 11.3414 2.52261 11.3414 2.33245C8.86644 2.50575 6.74278 3.39849 4.87767 5.00412C4.94605 5.09217 5.00132 5.1821 5.07345 5.25517C5.45659 5.64487 5.85097 6.02332 6.22849 6.41864C6.4936 6.69686 6.45144 7.13152 6.15261 7.3629C5.92404 7.53902 5.68048 7.50248 5.45285 7.37321C5.32076 7.29733 5.20929 7.18211 5.09875 7.07344C4.72217 6.70529 4.35027 6.33152 3.95776 5.94182C2.3231 7.80974 1.43597 9.93902 1.26923 12.4233C1.4238 12.4233 1.57555 12.4233 1.72637 12.4233C2.21068 12.4233 2.69406 12.4177 3.17837 12.4252C3.50343 12.4299 3.80881 12.7128 3.84816 13.0257C3.88188 13.2917 3.67486 13.5709 3.35167 13.6646C3.20553 13.7076 3.04909 13.7329 2.8964 13.7358C2.45987 13.7451 2.02239 13.7376 1.58492 13.7404C1.48 13.7404 1.37508 13.7573 1.26548 13.7657C1.45096 16.2219 2.32216 18.3559 3.96994 20.2135C4.42989 19.7545 4.85893 19.3273 5.28516 18.8983C5.45847 18.7231 5.64395 18.6182 5.90624 18.6847C6.40273 18.8102 6.57697 19.347 6.2388 19.7367C6.21819 19.7601 6.19477 19.7817 6.17322 19.8032C5.61022 20.3662 5.03317 20.9161 4.48985 21.4978C4.19383 21.8145 3.7039 21.8294 3.39195 21.4903C2.76994 20.8131 2.18914 20.1095 1.71232 19.3198C1.26829 18.5835 0.898269 17.8135 0.616301 17.0041C0.361499 16.2725 0.207869 15.5156 0.0860889 14.7484C-0.0403751 13.955 0.0251989 13.1634 0.00177959 12.3709C-0.0207029 11.5868 0.174145 10.8336 0.342764 10.0795C0.57883 9.0238 1.01911 8.043 1.54932 7.10716C1.98586 6.3362 2.49265 5.61021 3.10811 4.96383C3.78633 4.25095 4.50671 3.58772 5.32638 3.04158C6.3943 2.3287 7.5484 1.79474 8.79056 1.46874C9.37323 1.31605 9.96527 1.18959 10.5611 1.10247C11.066 1.02846 11.5849 0.981624 12.0927 1.00692C13.7273 1.08748 15.3161 1.37788 16.8327 2.03924C18.5217 2.77554 19.9512 3.86032 21.1419 5.23924C22.2688 6.5451 23.0838 8.03925 23.5541 9.71794C23.7386 10.3765 23.8239 11.051 23.9831 11.7123C24.0084 11.8163 23.9962 11.9297 23.9962 12.0393C23.9981 12.6172 23.9981 13.1943 24 13.7723C24.0028 14.5536 23.8445 15.3133 23.6637 16.0646C23.4491 16.9582 23.1147 17.8126 22.6791 18.6248C22.266 19.3929 21.821 20.1395 21.2215 20.7821C20.9995 21.021 20.7868 21.2693 20.5751 21.5166C20.2941 21.8444 19.8182 21.8088 19.5503 21.5316C18.9761 20.9367 18.3803 20.3606 17.7995 19.7714C17.5578 19.5259 17.5428 19.0538 17.7555 18.8383C17.9915 18.5995 18.4056 18.6041 18.6772 18.8646C19.0154 19.1887 19.3405 19.5259 19.673 19.8557C19.7817 19.9634 19.895 20.0674 20.0384 20.2042H20.0393Z" fill="#101010"/>
<path d="M12.2102 10.8009C12.3872 10.3634 12.5671 9.92032 12.747 9.47723C13.1264 8.54327 13.5067 7.60837 13.8842 6.67347C13.9713 6.45802 14.1137 6.29596 14.3451 6.25099C14.5634 6.2079 14.7685 6.22195 14.9446 6.41024C15.1601 6.64069 15.1348 6.8983 15.0552 7.15123C14.9577 7.4613 14.8228 7.75919 14.7001 8.06083C14.2758 9.11001 13.8495 10.1583 13.4139 11.2337C13.5142 11.3414 13.6303 11.4444 13.7212 11.5662C14.5858 12.7297 14.3732 14.1854 13.2097 14.9508C12.6317 15.3311 11.9863 15.3836 11.2978 15.1822C10.2186 14.8655 9.79051 14.0852 9.76616 13.0519C9.73993 11.896 10.6898 10.8861 11.8945 10.8262C11.9863 10.8215 12.0781 10.8103 12.2102 10.799V10.8009ZM12.0004 14.0149C12.5774 14.0149 12.9315 13.6674 12.9371 13.0978C12.9427 12.4824 12.5465 12.0552 11.991 12.0796C11.4907 12.1011 11.0861 12.548 11.0655 13.0622C11.042 13.6562 11.4355 14.0477 12.0013 14.014L12.0004 14.0149Z" fill="#101010"/>
</svg>
