<svg width="20" height="20" viewBox="0 0 20 20" fill="none" xmlns="http://www.w3.org/2000/svg">
<path d="M10.0013 5.20801C10.1671 5.20801 10.326 5.27386 10.4432 5.39107C10.5605 5.50828 10.6263 5.66725 10.6263 5.83301V10.833C10.6263 10.9988 10.5605 11.1577 10.4432 11.2749C10.326 11.3922 10.1671 11.458 10.0013 11.458C9.83554 11.458 9.67657 11.3922 9.55936 11.2749C9.44215 11.1577 9.3763 10.9988 9.3763 10.833V5.83301C9.3763 5.66725 9.44215 5.50828 9.55936 5.39107C9.67657 5.27386 9.83554 5.20801 10.0013 5.20801ZM10.0013 14.1663C10.2223 14.1663 10.4343 14.0785 10.5906 13.9223C10.7468 13.766 10.8346 13.554 10.8346 13.333C10.8346 13.112 10.7468 12.9 10.5906 12.7438C10.4343 12.5875 10.2223 12.4997 10.0013 12.4997C9.78029 12.4997 9.56833 12.5875 9.41205 12.7438C9.25577 12.9 9.16797 13.112 9.16797 13.333C9.16797 13.554 9.25577 13.766 9.41205 13.9223C9.56833 14.0785 9.78029 14.1663 10.0013 14.1663Z" fill="#101010"/>
<path fill-rule="evenodd" clip-rule="evenodd" d="M1.04297 10.0003C1.04297 5.05283 5.0538 1.04199 10.0013 1.04199C14.9488 1.04199 18.9596 5.05283 18.9596 10.0003C18.9596 14.9478 14.9488 18.9587 10.0013 18.9587C5.0538 18.9587 1.04297 14.9478 1.04297 10.0003ZM10.0013 2.29199C7.95692 2.29199 5.99628 3.10412 4.55069 4.54971C3.10509 5.9953 2.29297 7.95595 2.29297 10.0003C2.29297 12.0447 3.10509 14.0053 4.55069 15.4509C5.99628 16.8965 7.95692 17.7087 10.0013 17.7087C12.0457 17.7087 14.0063 16.8965 15.4519 15.4509C16.8975 14.0053 17.7096 12.0447 17.7096 10.0003C17.7096 7.95595 16.8975 5.9953 15.4519 4.54971C14.0063 3.10412 12.0457 2.29199 10.0013 2.29199Z" fill="#101010"/>
</svg>
