<svg width="20" height="20" viewBox="0 0 20 20" fill="none" xmlns="http://www.w3.org/2000/svg">
<path d="M10.0013 5.20703C10.1671 5.20703 10.326 5.27288 10.4432 5.39009C10.5605 5.5073 10.6263 5.66627 10.6263 5.83203V10.832C10.6263 10.9978 10.5605 11.1568 10.4432 11.274C10.326 11.3912 10.1671 11.457 10.0013 11.457C9.83554 11.457 9.67657 11.3912 9.55936 11.274C9.44215 11.1568 9.3763 10.9978 9.3763 10.832V5.83203C9.3763 5.66627 9.44215 5.5073 9.55936 5.39009C9.67657 5.27288 9.83554 5.20703 10.0013 5.20703ZM10.0013 14.1654C10.2223 14.1654 10.4343 14.0776 10.5906 13.9213C10.7468 13.765 10.8346 13.553 10.8346 13.332C10.8346 13.111 10.7468 12.8991 10.5906 12.7428C10.4343 12.5865 10.2223 12.4987 10.0013 12.4987C9.78029 12.4987 9.56833 12.5865 9.41205 12.7428C9.25577 12.8991 9.16797 13.111 9.16797 13.332C9.16797 13.553 9.25577 13.765 9.41205 13.9213C9.56833 14.0776 9.78029 14.1654 10.0013 14.1654Z" fill="#F59F00"/>
<path fill-rule="evenodd" clip-rule="evenodd" d="M1.04297 10.0013C1.04297 5.0538 5.0538 1.04297 10.0013 1.04297C14.9488 1.04297 18.9596 5.0538 18.9596 10.0013C18.9596 14.9488 14.9488 18.9596 10.0013 18.9596C5.0538 18.9596 1.04297 14.9488 1.04297 10.0013ZM10.0013 2.29297C7.95692 2.29297 5.99628 3.10509 4.55069 4.55069C3.10509 5.99628 2.29297 7.95692 2.29297 10.0013C2.29297 12.0457 3.10509 14.0063 4.55069 15.4519C5.99628 16.8975 7.95692 17.7096 10.0013 17.7096C12.0457 17.7096 14.0063 16.8975 15.4519 15.4519C16.8975 14.0063 17.7096 12.0457 17.7096 10.0013C17.7096 7.95692 16.8975 5.99628 15.4519 4.55069C14.0063 3.10509 12.0457 2.29297 10.0013 2.29297Z" fill="#F59F00"/>
</svg>
