<svg width="20" height="20" viewBox="0 0 20 20" fill="none" xmlns="http://www.w3.org/2000/svg">
<path d="M17.7778 2.77734H2.22222C1.63285 2.77734 1.06762 3.01147 0.650874 3.42822C0.234126 3.84496 0 4.4102 0 4.99957L0 14.9996C0 15.5889 0.234126 16.1542 0.650874 16.5709C1.06762 16.9877 1.63285 17.2218 2.22222 17.2218H17.7778C18.3671 17.2218 18.9324 16.9877 19.3491 16.5709C19.7659 16.1542 20 15.5889 20 14.9996V4.99957C20 4.4102 19.7659 3.84496 19.3491 3.42822C18.9324 3.01147 18.3671 2.77734 17.7778 2.77734Z" fill="#006C35"/>
<path d="M4.95648 7.80508C5.3076 7.83842 5.11371 7.21119 5.24093 7.0973C5.26482 7.04119 5.30926 7.04064 5.3126 7.11175V7.64397C5.30926 7.8173 5.42315 7.86786 5.51148 7.90397C5.60371 7.89675 5.66482 7.90008 5.70093 7.98953L5.74426 8.91064C5.74426 8.91064 5.9576 8.97175 5.9676 8.3923C5.97815 8.0523 5.89982 7.76786 5.94593 7.70175C5.9476 7.63675 6.03037 7.63286 6.08815 7.66453C6.17982 7.72897 6.22093 7.80897 6.36315 7.7773C6.58037 7.71786 6.71037 7.6123 6.71371 7.44564C6.70093 7.2873 6.68315 7.12897 6.61482 6.97064C6.62426 6.94175 6.57315 6.8673 6.5826 6.83842C6.62148 6.89953 6.68093 6.89453 6.69426 6.83842C6.6576 6.71675 6.60037 6.60008 6.50704 6.54953C6.43037 6.48175 6.31815 6.49564 6.27704 6.63675C6.25815 6.79897 6.33593 6.9923 6.45371 7.14953C6.47871 7.21119 6.51426 7.31342 6.49871 7.40564C6.43593 7.44119 6.3726 7.42675 6.32037 7.37119C6.32037 7.37119 6.1476 7.24175 6.1476 7.21286C6.19371 6.91953 6.15815 6.88619 6.1326 6.80508C6.11482 6.69286 6.06148 6.65675 6.01815 6.58008C5.97482 6.53453 5.91648 6.53453 5.88871 6.58008C5.81204 6.7123 5.8476 6.99675 5.90315 7.12397C5.9426 7.24064 6.00371 7.31453 5.97482 7.31453C5.95093 7.38064 5.90204 7.36508 5.86648 7.28897C5.81537 7.13119 5.80537 6.89619 5.80537 6.79008C5.78982 6.65897 5.77315 6.37842 5.68704 6.3073C5.63426 6.23564 5.55593 6.27008 5.52871 6.33619C5.52315 6.46619 5.52204 6.59675 5.53704 6.7173C5.59593 6.92786 5.61482 7.11342 5.64371 7.32953C5.65148 7.61897 5.47648 7.45508 5.48426 7.31175C5.52482 7.12564 5.51426 6.8323 5.47815 6.75786C5.44982 6.68397 5.41593 6.66508 5.34704 6.6773C5.2926 6.67286 5.15148 6.8273 5.11148 7.08286C5.11148 7.08286 5.0776 7.21453 5.06315 7.33175C5.04371 7.46397 4.95704 7.5573 4.89593 7.31342C4.84315 7.13619 4.81093 6.69897 4.7226 6.80119C4.69704 7.14286 4.66648 7.74397 4.95648 7.80508Z" fill="white"/>
<path d="M5.4831 8.05457C5.19421 8.06012 4.77143 8.43401 4.75977 8.64123C5.06421 8.49457 5.36365 8.35345 5.67365 8.20234C5.62365 8.12734 5.67088 8.06012 5.4831 8.05457Z" fill="white"/>
<path d="M7.07548 9.17587C7.20936 8.72976 7.05381 8.40087 7.12659 8.40254C7.28048 8.56865 7.49603 8.42476 7.54325 8.36699C7.56381 8.3381 7.61436 8.31921 7.64992 8.35699C7.77048 8.44365 7.9827 8.40254 8.02659 8.25032C8.05439 8.09744 8.07147 7.9428 8.0777 7.78754C7.97936 7.8181 7.90603 7.83865 7.89936 7.87921L7.87881 8.01143C7.87048 8.05421 7.78548 8.05587 7.78214 8.00143C7.74492 7.83199 7.59048 7.80976 7.49714 8.07254C7.43436 8.12365 7.32103 8.13365 7.30881 8.05754C7.32381 7.88143 7.2527 7.85754 7.11048 7.94032C7.06492 7.59087 7.01881 7.25698 6.97325 6.90754C7.0327 6.90587 7.08714 6.94976 7.14103 6.88199C7.08159 6.69699 6.95603 6.31921 6.88659 6.29199C6.8527 6.25087 6.82381 6.27643 6.77992 6.28699C6.70548 6.31087 6.63603 6.37532 6.6577 6.50032C6.74603 7.03643 6.80381 7.44476 6.89159 7.98087C6.90492 8.04365 6.8527 8.12643 6.78492 8.1181C6.66992 8.04032 6.64103 7.88254 6.44436 7.88921C6.30159 7.89087 6.13881 8.04532 6.11881 8.19476C6.09492 8.3131 6.08659 8.44199 6.11881 8.54587C6.21881 8.66587 6.33936 8.65421 6.44436 8.62699C6.53048 8.59143 6.60214 8.50476 6.63214 8.52532C6.6527 8.55032 6.63714 8.83532 6.22548 9.05421C5.97603 9.16587 5.7777 9.19143 5.67103 8.9881C5.60492 8.86087 5.67603 8.37754 5.51325 8.48976C5.03159 9.73143 6.64103 9.90365 6.82103 8.54087C6.83825 8.48476 6.90603 8.42865 6.9177 8.52032C6.88048 9.75476 5.6727 9.83976 5.4677 9.45143C5.41659 9.35976 5.40159 9.15643 5.39659 9.03421C5.36603 8.79143 5.23881 8.88476 5.21881 9.12532C5.19825 9.25921 5.20381 9.29699 5.20381 9.42532C5.2677 10.4003 6.82325 9.98143 7.07548 9.17587ZM6.47548 8.33254C6.46548 8.35143 6.42159 8.34365 6.38936 8.34365C6.3527 8.34198 6.33548 8.33587 6.31325 8.30643C6.30325 8.2731 6.33436 8.24143 6.34825 8.21643C6.36548 8.18699 6.45825 8.15643 6.49103 8.23865C6.49698 8.25428 6.49868 8.2712 6.49594 8.2877C6.49321 8.30419 6.48615 8.31967 6.47548 8.33254Z" fill="white"/>
<path d="M7.5569 7.22722C7.65357 7.19166 8.1119 6.66777 8.1119 6.66777C8.08801 6.64722 8.0669 6.63222 8.04302 6.61166C8.01746 6.58944 8.02024 6.56722 8.04302 6.54555C8.15635 6.47944 8.12024 6.33444 8.06079 6.26833C8.02228 6.24968 7.97999 6.24017 7.9372 6.24056C7.89441 6.24094 7.85229 6.25121 7.81413 6.27055C7.73468 6.34666 7.71579 6.46889 7.77857 6.54555C7.83968 6.57444 7.90079 6.63611 7.86024 6.67C7.67301 6.87 7.15968 7.215 7.21913 7.22722C7.2319 7.24389 7.5469 7.24333 7.5569 7.22722ZM7.89635 6.40444C7.92579 6.39722 7.96357 6.42333 7.98135 6.46222C7.99913 6.50111 7.98968 6.53833 7.96079 6.54555H7.95968C7.93079 6.55277 7.89302 6.52666 7.87524 6.48777C7.85802 6.44833 7.86746 6.41166 7.89635 6.40444ZM4.92357 9.58777C4.84801 9.74166 4.81635 9.63611 4.80968 9.55C4.80121 9.40538 4.80847 9.26027 4.83135 9.11722C4.85024 8.995 4.83135 9.03222 4.79246 9.08166C4.62079 9.355 4.60579 9.76389 4.70079 9.88555C4.75079 9.94333 4.83357 9.96889 4.89524 9.95C5.00301 9.90333 5.05024 9.68444 5.02468 9.605C4.98801 9.54889 4.95968 9.54 4.92357 9.58777ZM10.5797 6.69444C10.7775 6.96 10.9652 7.23055 11.1491 7.50611C11.1854 7.74426 11.2113 7.97889 11.2269 8.21C11.2575 8.65666 11.2663 9.14 11.2386 9.61055C11.3219 9.61389 11.4569 9.475 11.5036 9.27222C11.5341 8.99166 11.4925 8.49222 11.4897 8.32666C11.486 8.2229 11.481 8.11919 11.4747 8.01555C11.6936 8.37333 11.9069 8.74777 12.1152 9.16389C12.1913 9.12833 12.1747 8.70277 12.1302 8.64277C11.9636 8.28555 11.7341 7.93222 11.6608 7.79666C11.6336 7.74666 11.5408 7.60444 11.4302 7.44166C11.4204 7.31178 11.4048 7.1824 11.3836 7.05389C11.3491 6.81611 11.4819 7.08 11.4636 6.94166C11.4208 6.70389 11.2886 6.54333 11.1341 6.32555C11.0841 6.255 11.0858 6.24055 11.0086 6.34277C10.9818 6.40418 10.9693 6.47084 10.9719 6.53777C10.9475 6.50253 10.9217 6.46825 10.8947 6.435L10.6419 6.21944C10.5858 6.17944 10.4491 6.10722 10.4247 6.22722C10.4139 6.31136 10.418 6.39674 10.4369 6.47944C10.4513 6.53889 10.5375 6.63777 10.5797 6.69444ZM10.9908 6.68111C11.0013 6.72722 11.0125 6.77333 11.0197 6.82055L11.028 6.86555C11.0046 6.83305 10.9804 6.80119 10.9552 6.77C10.8641 6.66222 10.9397 6.68555 10.9908 6.68111Z" fill="white"/>
<path d="M12.1777 9.27358C11.9844 9.47525 11.7055 9.72358 11.4021 9.83858C11.3694 9.87525 11.4833 10.0325 11.6299 10.0325C11.876 10.0036 12.0927 9.86525 12.2933 9.50136C12.3471 9.41692 12.4416 9.23525 12.4438 9.09414C12.4621 8.26858 12.4027 7.62581 12.2788 7.02914C12.2705 6.98126 12.2728 6.93215 12.2855 6.88525C12.301 6.86636 12.3555 6.88525 12.3844 6.83858C12.426 6.79525 12.2727 6.4397 12.1849 6.30303C12.1538 6.24192 12.1433 6.20081 12.0916 6.31025C12.0371 6.39914 12.001 6.55414 12.0055 6.69858C12.1227 7.51136 12.1588 8.22303 12.2355 9.03581C12.2416 9.11414 12.2299 9.22858 12.1777 9.27358ZM15.4166 7.21247C15.4083 7.1547 15.3827 7.02025 15.3927 7.00303C15.4083 6.96192 15.4888 7.00747 15.5177 6.96025C15.5599 6.91747 15.3099 6.59636 15.2227 6.4597C15.191 6.39858 15.1805 6.35747 15.1288 6.46692C15.0744 6.55581 15.0555 6.71525 15.0771 6.85525C15.2077 7.73803 15.3049 8.40136 15.3249 9.18414C15.3133 9.25858 15.311 9.29858 15.276 9.39192C15.1988 9.49081 15.1138 9.61414 15.0333 9.67414C14.9533 9.73358 14.7827 9.79081 14.7266 9.8347C14.5505 9.93747 14.5499 10.0547 14.6933 10.0586C14.9388 10.0297 15.2299 10.0097 15.4305 9.70636C15.4844 9.62192 15.5483 9.39247 15.551 9.25136C15.5694 8.42581 15.5405 7.80914 15.4166 7.21247ZM13.5549 7.8997C13.5571 7.78636 13.5677 7.63636 13.5738 7.54247C13.5766 7.50747 13.5849 7.46803 13.6183 7.45914C13.6521 7.45025 13.7121 7.49358 13.7127 7.45692C13.706 7.38525 13.6916 7.27858 13.651 7.22803C13.5955 7.14581 13.4483 7.16581 13.4221 7.2947C13.4227 7.34247 13.4444 7.36803 13.4405 7.41136C13.4338 7.43581 13.4083 7.45247 13.3477 7.42358C13.3577 7.4147 13.3083 7.34636 13.3083 7.34636C13.261 7.31747 13.1977 7.34803 13.1571 7.37414C13.1426 7.4022 13.134 7.43292 13.1317 7.46444C13.1294 7.49595 13.1335 7.5276 13.1438 7.55747C13.2105 7.68358 13.4433 7.89747 13.5549 7.8997Z" fill="white"/>
<path d="M13.4777 6.93349L13.9738 7.54071C14.0099 7.9996 14.0194 8.37516 14.0549 8.83405C14.0499 9.02849 13.9899 9.19793 13.9327 9.22238C13.9327 9.22238 13.8466 9.27238 13.7888 9.21738C13.7466 9.20016 13.5783 8.93682 13.5783 8.93682C13.4922 8.85793 13.4355 8.88016 13.3744 8.93682C13.2055 9.0996 13.1294 9.40516 13.0149 9.61516C12.9849 9.66238 12.9016 9.70238 12.8088 9.61182C12.5738 9.29016 12.7116 8.83293 12.6827 8.95071C12.4733 9.18682 12.5655 9.57738 12.6127 9.66182C12.6816 9.7996 12.7377 9.88849 12.8722 9.95682C12.9944 10.0468 13.0899 9.99016 13.1422 9.92738C13.2655 9.79905 13.2672 9.47405 13.3249 9.40849C13.3649 9.29016 13.4677 9.31016 13.5172 9.36293C13.5628 9.42649 13.6228 9.47844 13.6922 9.5146C13.8072 9.61627 13.9444 9.6346 14.0794 9.54182C14.1716 9.49016 14.2322 9.42293 14.2861 9.29016C14.3461 9.13016 14.3133 8.3946 14.3011 7.95349C14.3872 8.0646 14.4711 8.18071 14.5561 8.29682C14.5933 8.66516 14.6144 9.03182 14.6022 9.40627C14.5933 9.48127 14.8633 9.18405 14.8611 9.04293V8.72849C14.9911 8.92405 15.1177 9.12571 15.2366 9.33905C15.3111 9.30016 15.2866 8.88071 15.2394 8.82293C15.1022 8.59293 14.9194 8.35349 14.7933 8.18238C14.7849 8.16071 14.7805 8.13627 14.7705 8.11571C14.7199 7.99849 14.7516 7.90405 14.7277 7.7796C14.7044 7.6546 14.7105 7.46793 14.6744 7.3196C14.6644 7.26182 14.6344 7.07627 14.6433 7.05905C14.6577 7.01738 14.7133 7.06016 14.7405 7.01238C14.7811 6.96793 14.5999 6.49849 14.5077 6.36405C14.4744 6.30405 14.4144 6.3246 14.3399 6.42238C14.2716 6.48682 14.2972 6.63349 14.3233 6.77293C14.3883 7.11071 14.4427 7.4346 14.4894 7.75516C14.3895 7.62234 14.2886 7.4903 14.1866 7.35905L14.1822 7.3346C14.1822 7.32849 14.1672 7.04349 14.1538 6.97571C14.1516 6.94849 14.1449 6.94016 14.1738 6.94349C14.2044 6.96905 14.2083 6.97071 14.2277 6.9796C14.2588 6.98516 14.2861 6.93238 14.2677 6.88405L13.9805 6.35516C13.9577 6.33238 13.9277 6.30793 13.8916 6.36127C13.8691 6.38075 13.851 6.40491 13.8388 6.43206C13.8265 6.4592 13.8203 6.4887 13.8205 6.51849C13.8294 6.64349 13.8511 6.77127 13.8594 6.89682L13.8716 6.9646C13.8588 6.9496 13.8433 6.93071 13.8366 6.92405C13.5927 6.66738 13.9488 6.88238 13.7899 6.68405C13.6555 6.53627 13.6166 6.49016 13.5011 6.40127C13.4433 6.36405 13.4083 6.29293 13.3894 6.41405C13.3805 6.52028 13.3777 6.62694 13.3811 6.73349C13.3811 6.7846 13.4327 6.87793 13.4777 6.93349ZM8.53273 7.53293C8.67273 7.59071 8.76217 7.32405 8.81995 7.03182C8.85884 6.9496 8.88884 6.94071 8.90884 6.98293C8.90384 7.37182 8.93662 7.45793 9.03662 7.57627C9.25939 7.74849 9.44384 7.59793 9.45884 7.58349L9.63217 7.41016C9.6705 7.3696 9.72217 7.36682 9.77661 7.40293C9.82995 7.45071 9.82273 7.53405 9.93606 7.59182C10.0316 7.63016 10.2361 7.60071 10.2833 7.51849C10.3472 7.4096 10.3627 7.37182 10.3916 7.33071C10.4372 7.27016 10.5149 7.29738 10.5149 7.31627C10.5077 7.35016 10.4622 7.38405 10.4933 7.4446C10.5477 7.48516 10.5599 7.45905 10.5922 7.45016C10.7055 7.39571 10.7899 7.15016 10.7899 7.15016C10.7949 7.05849 10.7438 7.06627 10.7105 7.08516C10.6672 7.11127 10.6644 7.12016 10.6211 7.14682C10.5655 7.15516 10.4583 7.19182 10.4055 7.1096C10.3511 7.01071 10.3499 6.87293 10.3088 6.77349C10.3088 6.76627 10.2366 6.61627 10.3038 6.60682C10.3377 6.61293 10.4094 6.63182 10.4211 6.57182C10.4561 6.51293 10.3449 6.34516 10.2694 6.26016C10.2033 6.18793 10.1116 6.17905 10.0233 6.25293C9.96106 6.31016 9.96995 6.37349 9.95773 6.43405C9.94728 6.47676 9.94712 6.52134 9.95726 6.56413C9.9674 6.60691 9.98755 6.64668 10.0161 6.68016C10.0777 6.80182 10.1905 6.95905 10.1533 7.17905C10.1533 7.17905 10.0877 7.28349 9.97273 7.27016C9.92495 7.2596 9.84717 7.23905 9.80606 6.93349C9.77495 6.70182 9.81384 6.37793 9.7155 6.22627C9.67995 6.1346 9.65439 6.04627 9.56773 6.20293C9.54439 6.2646 9.44439 6.35793 9.51717 6.55071C9.57662 6.67238 9.6005 6.87071 9.57384 7.09182C9.53273 7.1546 9.52384 7.17571 9.46995 7.23849C9.39439 7.3196 9.31273 7.29905 9.24995 7.26849C9.19106 7.22905 9.1455 7.20849 9.11884 7.08293C9.12384 6.88293 9.13495 6.55516 9.09828 6.48571C9.04439 6.37793 8.9555 6.41682 8.91717 6.4496C8.73439 6.61682 8.64439 6.89849 8.58939 7.12238C8.53884 7.28571 8.48495 7.23905 8.44717 7.17293C8.35495 7.08627 8.34884 6.41016 8.23717 6.52182C8.05773 7.0296 8.33828 7.58738 8.53273 7.53293Z" fill="white"/>
<path d="M11.1873 8.62443L11.134 8.59388L10.089 8.58888C10.0351 8.56832 10.0512 8.55054 10.089 8.5361C10.3384 8.50221 10.7823 8.42999 10.8118 8.00388C10.8068 7.78221 10.7162 7.63666 10.444 7.59666C10.2445 7.61221 10.1018 7.8061 10.1245 8.01888C10.1151 8.07666 10.1434 8.18888 10.0851 8.20166C9.70122 8.23665 9.28288 8.47666 9.26899 8.64888C9.24566 8.66499 9.19344 8.61832 9.2001 8.54499C9.18149 8.23132 9.09122 7.92609 8.93621 7.65277C8.8151 7.53165 8.85288 7.57166 8.77177 7.62888C8.71955 7.68888 8.7101 7.72999 8.71288 7.84943C8.71288 7.85388 8.81066 8.12666 8.89344 8.31777C8.94844 8.51388 9.0001 8.73777 8.96288 8.94943C8.83399 9.22943 8.57455 9.48054 8.32455 9.61666C8.19566 9.65832 8.0851 9.64332 8.05788 9.61443C7.97844 9.5611 7.98233 9.46277 7.98844 9.4611C8.19899 9.31388 8.4401 9.19554 8.62899 8.79943C8.68455 8.64832 8.70122 8.55666 8.64621 8.32277C8.63133 8.24021 8.59339 8.16355 8.53677 8.10166C8.57066 8.07943 8.66788 8.15332 8.68288 8.10943C8.6548 7.98138 8.59105 7.86389 8.49899 7.77054C8.42399 7.70221 8.34233 7.69443 8.27344 7.75721C8.19566 7.80054 8.17899 7.95499 8.21621 8.09054C8.25733 8.19277 8.36899 8.20999 8.44899 8.41499C8.44899 8.41943 8.47788 8.56832 8.43677 8.62666C8.40399 8.72888 7.97899 9.06277 7.95566 9.07777C7.94399 9.09221 7.94899 9.07054 7.94733 9.01499C7.94455 8.94721 7.97455 8.78721 7.96622 8.7861C7.82788 8.87554 7.78177 9.14943 7.75677 9.23054C7.40677 9.47221 7.01066 9.65221 6.78177 9.89777C6.66233 10.0839 7.60288 9.68388 7.71233 9.63554C7.73677 9.65332 7.73399 9.73721 7.79955 9.81221C7.89733 9.94443 8.10399 10.0261 8.30677 9.97554C8.64566 9.85277 8.84177 9.62166 9.04066 9.36554C9.06899 9.32388 9.11344 9.29221 9.15455 9.32388C9.29122 9.62999 9.68621 9.84666 10.1957 9.86943C10.314 9.72554 10.2568 9.6561 10.209 9.6261C10.209 9.62166 9.95733 9.5261 9.91899 9.43054C9.89566 9.34388 9.95233 9.26777 10.0657 9.20999C10.3929 9.17054 10.7145 9.12665 11.0262 9.02665C11.0295 8.92221 11.0901 8.76554 11.1318 8.69777C11.1718 8.62888 11.1934 8.64943 11.1873 8.62443ZM10.3279 7.97332C10.3434 7.94721 10.3951 7.94832 10.4434 7.97666C10.4918 8.00499 10.519 8.04888 10.5029 8.07499C10.4873 8.10166 10.4351 8.09999 10.3868 8.07166C10.3384 8.04332 10.3123 7.99999 10.3279 7.97332ZM9.90733 9.02888C9.7951 9.06721 9.68733 9.09721 9.68733 9.25943C9.72899 9.48499 9.6301 9.40777 9.57177 9.37666C9.50288 9.32721 9.30899 9.20777 9.28121 8.94999C9.27677 8.88832 9.3251 8.83666 9.40233 8.83666C9.51844 8.86832 9.6901 8.87054 9.83899 8.8861C9.96066 8.89388 10.0212 8.98943 9.90733 9.02888ZM6.03677 6.5261C6.15677 6.58388 6.38344 6.55943 6.37344 6.36499C6.37344 6.34777 6.36899 6.28999 6.36733 6.27443C6.34288 6.21721 6.27622 6.2311 6.26066 6.29054C6.25566 6.30999 6.26899 6.3411 6.25177 6.3511C6.24177 6.3611 6.20344 6.35499 6.2051 6.30166C6.2051 6.28443 6.19233 6.2661 6.1851 6.25554C6.17733 6.25054 6.17288 6.24888 6.15899 6.24888C6.14233 6.24943 6.14233 6.25388 6.13344 6.26832C6.12955 6.28221 6.12399 6.29666 6.12399 6.31277C6.12177 6.33166 6.11455 6.33832 6.10066 6.34166C6.0851 6.34166 6.08844 6.34332 6.07622 6.33499C6.06844 6.32666 6.05899 6.32332 6.05899 6.30943C6.05874 6.29321 6.05612 6.27712 6.05122 6.26166C6.04418 6.25351 6.03436 6.24814 6.02177 6.24554C5.95622 6.24554 5.95177 6.32054 5.95566 6.34943C5.94955 6.35443 5.94733 6.48888 6.03677 6.5261Z" fill="white"/>
<path d="M9.72903 7.79277C9.72903 7.77555 9.71626 7.75777 9.70903 7.74666C9.70126 7.74166 9.69681 7.74 9.68292 7.74C9.66626 7.74055 9.66681 7.745 9.65737 7.75944C9.65348 7.77388 9.64792 7.78777 9.64792 7.80388C9.64626 7.82333 9.63848 7.83 9.62459 7.83277C9.60903 7.83277 9.61237 7.83444 9.59959 7.82666C9.59181 7.81833 9.58237 7.815 9.58237 7.80111C9.58211 7.78489 9.57949 7.76879 9.57459 7.75333C9.56755 7.74518 9.55774 7.74 9.54514 7.73777C9.47959 7.73777 9.47514 7.81277 9.47848 7.84111C9.47348 7.84666 9.4707 7.98055 9.56014 8.01833C9.6807 8.07555 9.96681 8.04222 9.89681 7.85722C9.89561 7.8268 9.89357 7.79642 9.8907 7.76611C9.86626 7.70888 9.79903 7.72333 9.78403 7.78222C9.77959 7.80166 9.79292 7.83277 9.77514 7.84277C9.76626 7.85277 9.72737 7.84666 9.72903 7.79277ZM11.6163 7.4C11.7363 7.45777 11.9624 7.43333 11.9524 7.23944C11.9512 7.20902 11.9491 7.17864 11.9463 7.14833C11.9218 7.09111 11.8551 7.10555 11.8401 7.16444C11.8351 7.18388 11.8485 7.215 11.8307 7.225C11.8207 7.235 11.7824 7.22944 11.784 7.17555C11.784 7.15833 11.7713 7.14 11.764 7.12944C11.7563 7.12444 11.7518 7.12277 11.7374 7.12277C11.7207 7.12388 11.7213 7.12777 11.7118 7.14222C11.7079 7.15666 11.7024 7.17055 11.7024 7.18666C11.7001 7.20611 11.6929 7.21277 11.679 7.21555C11.6635 7.21555 11.6668 7.21722 11.654 7.20944C11.6463 7.20111 11.6374 7.19777 11.6374 7.18388C11.6372 7.16748 11.6345 7.15119 11.6296 7.13555C11.6222 7.1274 11.6122 7.12222 11.5996 7.12C11.534 7.12 11.5296 7.195 11.5335 7.22333C11.5296 7.22888 11.5268 7.36277 11.6163 7.4ZM11.6974 6.64888C11.7401 6.76888 11.6646 6.88333 11.7096 6.9C11.7501 6.91888 11.8079 6.77611 11.829 6.64444C11.854 6.53777 11.7779 6.31944 11.6701 6.27444C11.6046 6.25888 11.5113 6.29777 11.5413 6.38555C11.5263 6.42777 11.6735 6.57111 11.6974 6.64888ZM12.8057 9.46222C12.8896 9.46277 12.9863 9.27055 13.0274 9.08C13.0501 8.81777 13.0118 8.65833 13.0051 8.50388C12.9985 8.34944 12.8313 7.175 12.7968 7.05833C12.7563 6.83777 12.9596 7.02888 12.9374 6.90055C12.8668 6.73888 12.6918 6.50388 12.6363 6.36333C12.6029 6.30333 12.6174 6.25 12.5429 6.34777C12.4746 6.57277 12.4507 6.75611 12.4768 6.89611C12.6535 7.81833 12.8346 8.585 12.8057 9.46222ZM14.8924 7.05111C14.9118 7.11111 14.8629 7.305 14.9035 7.32277C14.9407 7.34277 14.9929 7.18888 15.0124 7.04611C15.0229 6.96777 14.9657 6.69444 14.8674 6.64555C14.8074 6.62888 14.7224 6.67055 14.7501 6.76611C14.7363 6.81222 14.8707 6.96666 14.8924 7.05111ZM7.60403 9.08222C7.64014 9.09722 7.68959 8.98388 7.70848 8.87888C7.71903 8.82111 7.66348 8.62055 7.56959 8.58444C7.51181 8.57222 7.43292 8.58777 7.45737 8.67333C7.45459 8.71944 7.58514 8.775 7.59292 8.88222C7.61181 8.92666 7.56514 9.06944 7.60403 9.08222ZM5.07292 6.51833C5.09126 6.56444 5.05459 6.71166 5.09292 6.72555C5.12792 6.74111 5.17737 6.62333 5.1957 6.515C5.20626 6.455 5.19792 6.25166 5.05903 6.21C5.00181 6.19722 4.92237 6.22888 4.94848 6.30166C4.93514 6.33611 5.05237 6.45388 5.07292 6.51833ZM7.79626 7.17C7.69014 7.22777 7.64848 7.39888 7.71514 7.49833C7.77681 7.58666 7.87459 7.55388 7.88792 7.55388C7.99237 7.56666 8.05403 7.35833 8.05403 7.35833C8.05403 7.35833 8.05737 7.3 7.93348 7.41055C7.88126 7.42055 7.87459 7.40111 7.86181 7.37111C7.84933 7.31672 7.85499 7.25975 7.87792 7.20888C7.8957 7.15722 7.8557 7.13444 7.79626 7.17ZM8.59737 6.52944C8.61442 6.51878 8.62906 6.50467 8.64035 6.48803C8.65164 6.47138 8.65933 6.45256 8.66292 6.43277C8.67903 6.35166 8.57681 6.47111 8.56403 6.38055C8.54126 6.29666 8.60681 6.26222 8.66903 6.18111C8.67126 6.125 8.67014 6.08555 8.59403 6.13111C8.5407 6.16722 8.43403 6.27722 8.4307 6.40388C8.42737 6.47555 8.41403 6.475 8.46126 6.52055C8.49514 6.57 8.52903 6.565 8.59737 6.52944ZM9.31903 6.57277C9.38792 6.38611 9.38792 6.30722 9.39292 6.22777C9.37181 6.10722 9.29014 6.11111 9.23626 6.245C9.21292 6.29555 9.1857 6.56166 9.19014 6.56166C9.17181 6.64111 9.27292 6.675 9.31903 6.57277ZM13.8579 7.89666C13.8579 7.89666 13.3007 8.29277 13.2874 8.30666C13.2318 8.35555 13.2596 8.52888 13.2874 8.50888C13.3268 8.52444 13.8874 8.14388 13.8763 8.09944C13.9024 8.10055 13.9151 7.87666 13.8579 7.89666ZM13.7896 8.97111C13.8268 8.99111 13.9251 8.86944 13.9213 8.71777C13.9324 8.63944 13.8929 8.35222 13.7951 8.30333C13.7351 8.28666 13.6551 8.33777 13.6829 8.43277C13.669 8.47833 13.7518 8.63777 13.7735 8.72222C13.7929 8.78277 13.749 8.95333 13.7896 8.97111ZM10.634 9.80222C10.634 9.80722 10.6813 9.84777 10.7368 9.81555C10.8535 9.77055 10.9268 9.72722 11.0901 9.69111C11.1329 9.69055 11.1301 9.57555 11.0624 9.57166C10.974 9.57611 10.8918 9.58055 10.8035 9.65055C10.749 9.66277 10.7401 9.63 10.7279 9.6C10.7146 9.52611 10.7585 9.475 10.749 9.42C10.7524 9.42333 10.6985 9.37388 10.6435 9.40166C10.6407 9.40166 10.5207 9.48277 10.4824 9.53944C10.4585 9.55777 10.4613 9.57333 10.4685 9.60388C10.4868 9.64611 10.5196 9.63333 10.5563 9.61333C10.6051 9.60666 10.6285 9.63888 10.6246 9.69722C10.6013 9.77111 10.634 9.79833 10.634 9.80222ZM14.2735 9.89444C14.2551 9.92611 14.2429 9.97388 14.2996 9.98888C14.404 10.0183 14.6446 9.86166 14.6446 9.85888C14.6835 9.82944 14.6707 9.77444 14.6674 9.77444C14.6446 9.74833 14.5935 9.76333 14.559 9.75944C14.5429 9.75944 14.4885 9.75111 14.5146 9.70333C14.5329 9.67756 14.5475 9.64932 14.5579 9.61944C14.574 9.58333 14.5601 9.55944 14.5013 9.54C14.4418 9.52889 14.4179 9.53444 14.3518 9.54C14.3163 9.54777 14.304 9.56333 14.2974 9.60666C14.3001 9.67222 14.3396 9.66888 14.3807 9.695C14.4046 9.72555 14.4201 9.75333 14.379 9.80277C14.3401 9.83888 14.3129 9.85888 14.2735 9.89444ZM14.1668 12.7778H13.3335V12.5C13.3335 12.4263 13.3042 12.3557 13.2521 12.3036C13.2 12.2515 13.1294 12.2222 13.0557 12.2222C12.982 12.2222 12.9114 12.2515 12.8593 12.3036C12.8072 12.3557 12.7779 12.4263 12.7779 12.5V12.7778H6.11126C6.11126 12.7778 6.11126 13.3333 7.77792 13.3333H12.7779V13.6111C12.7779 13.6848 12.8072 13.7554 12.8593 13.8075C12.9114 13.8596 12.982 13.8889 13.0557 13.8889C13.1294 13.8889 13.2 13.8596 13.2521 13.8075C13.3042 13.7554 13.3335 13.6848 13.3335 13.6111V13.3333H13.889V13.6111C13.889 13.6848 13.9183 13.7554 13.9704 13.8075C14.0225 13.8596 14.0931 13.8889 14.1668 13.8889C14.2405 13.8889 14.3111 13.8596 14.3632 13.8075C14.4153 13.7554 14.4446 13.6848 14.4446 13.6111V13.0556C14.4446 12.9819 14.4153 12.9112 14.3632 12.8591C14.3111 12.807 14.2405 12.7778 14.1668 12.7778Z" fill="white"/>
</svg>
