<svg width="20" height="20" viewBox="0 0 20 20" fill="none" xmlns="http://www.w3.org/2000/svg">
<path d="M10 1.25C5.1675 1.25 1.25 5.1675 1.25 10C1.25 14.1037 4.075 17.5469 7.88625 18.4925V12.6737H6.08187V10H7.88625V8.84812C7.88625 5.87 9.23375 4.48937 12.1581 4.48937C12.7125 4.48937 13.6687 4.59812 14.06 4.70687V7.13062C13.8538 7.10875 13.495 7.09812 13.0494 7.09812C11.6144 7.09812 11.06 7.64187 11.06 9.05437V10H13.9181L13.4269 12.6737H11.06V18.6856C15.3925 18.1625 18.75 14.4731 18.75 10C18.75 5.1675 14.8325 1.25 10 1.25Z" fill="#7B7B7B"/>
</svg>
