<svg width="49" height="50" viewBox="0 0 49 50" fill="none" xmlns="http://www.w3.org/2000/svg">
<g clip-path="url(#clip0_837_26338)">
<path d="M6.5091 46.3811C8.06237 44.9131 9.54863 43.5071 11.0329 42.0992C17.7434 35.7301 24.4539 29.361 31.1644 22.992C31.3878 22.7808 31.601 22.553 31.8487 22.377C32.4375 21.9567 33.0527 21.9588 33.6476 22.3687C33.8689 22.522 34.0598 22.7249 34.2567 22.9133C36.9552 25.4746 39.6516 28.04 42.352 30.6013C42.5936 30.8311 42.8474 31.0444 43.2271 31.384C43.2495 30.8953 43.2779 30.5702 43.2779 30.2431C43.2819 28.6218 43.2779 27.0006 43.2819 25.3793C43.2819 25.0356 43.2819 24.6857 43.3368 24.3482C43.4647 23.5324 44.1083 22.9485 44.8515 22.9381C45.5459 22.9299 46.2098 23.462 46.3905 24.2095C46.4534 24.4724 46.4575 24.7561 46.4575 25.0294C46.4616 30.446 46.4839 35.8626 46.4514 41.2771C46.4271 45.3893 43.7368 48.814 39.8384 49.7395C39.0891 49.9176 38.2973 49.9859 37.5257 49.988C28.0193 50.0046 18.5149 50.0004 9.00854 49.9984C8.23495 49.9984 7.46136 49.9839 6.68777 49.9632C6.52128 49.959 6.3426 49.9321 6.19438 49.8596C3.62997 48.609 1.35794 47.025 0.503131 44.0641C0.210751 43.0537 0.0320747 41.9687 0.0280138 40.9169C-0.00650323 31.15 -0.00650323 21.3873 0.0138009 11.6246C0.0219226 7.36129 2.50918 3.9842 6.36697 2.9572C7.14259 2.75014 7.96694 2.64454 8.76895 2.6404C13.979 2.61348 19.189 2.62383 24.3971 2.63212C24.7625 2.63212 25.1483 2.6611 25.4914 2.77913C26.1696 3.00896 26.6001 3.71916 26.5371 4.38174C26.4701 5.07331 25.9564 5.66549 25.2498 5.79387C24.8539 5.86427 24.4417 5.86634 24.0377 5.86634C19.2337 5.87048 14.4297 5.86841 9.62578 5.86841C9.32122 5.86841 9.01666 5.87669 8.7121 5.86841C5.25024 5.80008 3.15079 8.69887 3.1711 11.5583C3.2381 21.4246 3.19952 31.2908 3.19546 41.157C3.19546 43.5858 4.31422 45.2588 6.5091 46.3832V46.3811ZM32.7542 25.8514C25.4468 32.7899 18.2043 39.6642 10.8197 46.6772C11.2481 46.7124 11.441 46.7414 11.6339 46.7414C20.3971 46.7414 29.1604 46.7207 37.9216 46.7559C40.6505 46.7662 43.2251 44.5196 43.2616 41.5173C43.2819 39.8277 43.2982 38.1361 43.2616 36.4465C43.2535 36.1132 43.0708 35.7011 42.8312 35.4713C39.5115 32.2743 36.1674 29.1022 32.7542 25.8535V25.8514Z" fill="#727272"/>
<path d="M38.1102 7.96355C38.1102 6.11868 38.1102 4.43324 38.1102 2.74573C38.1102 2.43515 38.1041 2.12456 38.1102 1.81398C38.1407 0.735212 38.76 0.0125843 39.6554 0.000160871C40.563 -0.0122625 41.2107 0.695871 41.2229 1.77671C41.2411 3.46629 41.2269 5.15587 41.231 6.84545C41.231 7.18088 41.2574 7.51838 41.2757 7.91386C41.6594 7.9325 41.9883 7.95941 42.3193 7.96148C43.9761 7.96562 45.6329 7.95113 47.2897 7.96977C48.3882 7.98219 49.0115 8.58472 49.0014 9.5641C48.9912 10.5311 48.3537 11.1253 47.2552 11.1377C45.6329 11.1543 44.0086 11.1419 42.3863 11.1419C42.0513 11.1419 41.7163 11.1419 41.296 11.1419C41.2716 11.4918 41.235 11.79 41.233 12.086C41.2269 13.844 41.2432 15.6039 41.2229 17.3618C41.2127 18.3288 40.7112 18.9334 39.9072 19.0411C38.9163 19.1736 38.1407 18.5048 38.1204 17.4198C38.0879 15.8006 38.1102 14.1794 38.1102 12.5581C38.1102 12.1192 38.1102 11.6802 38.1102 11.1419C37.4077 11.1419 36.8067 11.1419 36.2077 11.1419C34.821 11.1419 33.4342 11.1564 32.0494 11.1357C30.9875 11.1191 30.3317 10.4689 30.352 9.50819C30.3703 8.58058 30.9916 7.98219 32.021 7.96977C33.6778 7.94906 35.3347 7.96355 36.9915 7.96355C37.3224 7.96355 37.6534 7.96355 38.1123 7.96355H38.1102Z" fill="#727272"/>
<path d="M14.5537 11.4942C17.912 11.5004 20.5373 14.1465 20.452 17.5361C20.3688 20.8821 18.1252 23.5117 14.4562 23.4807C10.8055 23.4496 8.68579 20.381 8.6797 17.4905C8.67361 14.1962 11.3274 11.4879 14.5517 11.4942H14.5537ZM14.4989 20.2589C16.046 20.3044 17.2968 19.1076 17.3414 17.5402C17.3841 16.066 16.1679 14.7408 14.7121 14.6745C13.1832 14.6041 11.9081 15.8009 11.837 17.3746C11.7639 18.9585 12.9212 20.2112 14.4989 20.2589Z" fill="#727272"/>
</g>
<defs>
<clipPath id="clip0_837_26338">
<rect width="49" height="50" fill="white"/>
</clipPath>
</defs>
</svg>
