<svg width="20" height="20" viewBox="0 0 20 20" fill="none" xmlns="http://www.w3.org/2000/svg">
<path d="M10.0037 18.3346C14.6061 18.3346 18.3371 14.6037 18.3371 10.0013C18.3371 5.39893 14.6061 1.66797 10.0037 1.66797C5.40137 1.66797 1.67041 5.39893 1.67041 10.0013C1.67041 14.6037 5.40137 18.3346 10.0037 18.3346Z" stroke="#7B7B7B" stroke-width="1.5" stroke-linecap="round" stroke-linejoin="round"/>
<path d="M6.67253 2.5H7.50586C5.88086 7.36667 5.88086 12.6333 7.50586 17.5H6.67253" stroke="#7B7B7B" stroke-width="1.5" stroke-linecap="round" stroke-linejoin="round"/>
<path d="M12.5 2.5C14.125 7.36667 14.125 12.6333 12.5 17.5" stroke="#7B7B7B" stroke-width="1.5" stroke-linecap="round" stroke-linejoin="round"/>
<path d="M2.5 13.3333V12.5C7.36667 14.125 12.6333 14.125 17.5 12.5V13.3333" stroke="#7B7B7B" stroke-width="1.5" stroke-linecap="round" stroke-linejoin="round"/>
<path d="M2.5 7.49805C7.36667 5.87305 12.6333 5.87305 17.5 7.49805" stroke="#7B7B7B" stroke-width="1.5" stroke-linecap="round" stroke-linejoin="round"/>
</svg>
