<svg width="20" height="20" viewBox="0 0 20 20" fill="none" xmlns="http://www.w3.org/2000/svg">
<path d="M6.37602 1.31125C5.44477 1.355 4.80914 1.50375 4.25352 1.72188C3.67852 1.94625 3.19102 2.24688 2.70539 2.73375C2.22039 3.22063 1.92164 3.70875 1.69914 4.28438C1.48352 4.84125 1.33789 5.4775 1.29664 6.40938C1.25539 7.34063 1.24664 7.64063 1.25102 10.0163C1.25539 12.3919 1.26602 12.69 1.31102 13.6238C1.35539 14.5544 1.50352 15.19 1.72164 15.7463C1.94602 16.3213 2.24664 16.8088 2.73352 17.2944C3.22039 17.7794 3.70789 18.0775 4.28539 18.3006C4.84164 18.5156 5.47852 18.6625 6.40977 18.7031C7.34102 18.7438 7.64102 18.7531 10.0166 18.7488C12.3923 18.7444 12.691 18.7338 13.6248 18.6894C14.5585 18.645 15.1904 18.4963 15.7466 18.2788C16.3216 18.0538 16.8098 17.7538 17.2948 17.2663C17.7798 16.7788 18.0785 16.2906 18.3004 15.7144C18.516 15.1581 18.6623 14.5213 18.7029 13.5906C18.7435 12.6569 18.7535 12.3588 18.7485 9.9825C18.7435 7.60625 18.7335 7.30875 18.6891 6.37563C18.6448 5.4425 18.4966 4.80875 18.2785 4.2525C18.0535 3.6775 17.7535 3.19 17.2666 2.70438C16.7798 2.21875 16.291 1.92063 15.7148 1.69875C15.1579 1.48313 14.5216 1.33625 13.5904 1.29625C12.6591 1.25625 12.3591 1.24563 9.98289 1.25C7.60664 1.25438 7.30914 1.265 6.37602 1.31M6.47852 17.1281C5.62539 17.0913 5.16227 16.9494 4.85352 16.8306C4.44477 16.6731 4.15352 16.4825 3.84602 16.1781C3.53852 15.8738 3.34914 15.5813 3.18977 15.1731C3.06977 14.8644 2.92539 14.4019 2.88539 13.5488C2.84227 12.6269 2.83289 12.35 2.82789 10.0138C2.82289 7.6775 2.83164 7.40125 2.87227 6.47875C2.90852 5.62625 3.05102 5.1625 3.16977 4.85375C3.32727 4.44438 3.51727 4.15375 3.82227 3.84625C4.12727 3.53875 4.41914 3.34938 4.82727 3.19C5.13539 3.06938 5.59852 2.92625 6.45102 2.88563C7.37352 2.84188 7.65039 2.83313 9.98602 2.82813C12.3216 2.82313 12.5991 2.83188 13.5223 2.8725C14.3748 2.90938 14.8385 3.05063 15.1466 3.17C15.5554 3.3275 15.8466 3.51688 16.1541 3.8225C16.4616 4.12813 16.651 4.41875 16.811 4.82813C16.9316 5.13563 17.0748 5.59813 17.1148 6.45125C17.1585 7.37375 17.1685 7.65063 17.1729 9.98625C17.1773 12.3219 17.1691 12.5994 17.1285 13.5213C17.091 14.3744 16.9498 14.8375 16.831 15.1469C16.6735 15.5556 16.4835 15.8469 16.1779 16.1544C15.8723 16.4619 15.581 16.6513 15.1729 16.8106C14.8648 16.9306 14.4016 17.0744 13.5498 17.115C12.6273 17.1581 12.3504 17.1675 10.0141 17.1725C7.67789 17.1775 7.40102 17.1681 6.47852 17.1281ZM13.6116 5.32313C13.6129 5.90313 14.0835 6.3725 14.6635 6.37125C15.2435 6.37 15.7129 5.89938 15.7116 5.31938C15.7104 4.73938 15.2398 4.27 14.6598 4.27125C14.0798 4.2725 13.611 4.74313 13.6116 5.32313ZM5.50727 10.0081C5.51227 12.4894 7.52727 14.4969 10.0085 14.4919C12.4898 14.4869 14.4979 12.4719 14.4935 9.99063C14.4885 7.50938 12.4729 5.50125 9.99164 5.50625C7.51039 5.51125 5.50227 7.52688 5.50727 10.0081ZM7.08414 10.005C7.08102 8.39438 8.38414 7.08563 9.99539 7.0825C11.606 7.07938 12.9148 8.3825 12.9179 9.99375C12.921 11.6044 11.6179 12.9131 10.0066 12.9163C8.39602 12.9194 7.08727 11.6169 7.08414 10.0063" fill="#7B7B7B"/>
</svg>
