<svg width="20" height="20" viewBox="0 0 20 20" fill="none" xmlns="http://www.w3.org/2000/svg">
<path d="M10 12.5C11.3807 12.5 12.5 11.3807 12.5 10C12.5 8.61929 11.3807 7.5 10 7.5C8.61929 7.5 7.5 8.61929 7.5 10C7.5 11.3807 8.61929 12.5 10 12.5Z" stroke="#727272" stroke-width="1.5" stroke-miterlimit="10" stroke-linecap="round" stroke-linejoin="round"/>
<path d="M1.66626 10.7333V9.26666C1.66626 8.4 2.37459 7.68333 3.24959 7.68333C4.75793 7.68333 5.37459 6.61666 4.61626 5.30833C4.18293 4.55833 4.44126 3.58333 5.19959 3.15L6.64126 2.325C7.29959 1.93333 8.14959 2.16666 8.54126 2.825L8.63293 2.98333C9.38293 4.29166 10.6163 4.29166 11.3746 2.98333L11.4663 2.825C11.8579 2.16666 12.7079 1.93333 13.3663 2.325L14.8079 3.15C15.5663 3.58333 15.8246 4.55833 15.3913 5.30833C14.6329 6.61666 15.2496 7.68333 16.7579 7.68333C17.6246 7.68333 18.3413 8.39166 18.3413 9.26666V10.7333C18.3413 11.6 17.6329 12.3167 16.7579 12.3167C15.2496 12.3167 14.6329 13.3833 15.3913 14.6917C15.8246 15.45 15.5663 16.4167 14.8079 16.85L13.3663 17.675C12.7079 18.0667 11.8579 17.8333 11.4663 17.175L11.3746 17.0167C10.6246 15.7083 9.39126 15.7083 8.63293 17.0167L8.54126 17.175C8.14959 17.8333 7.29959 18.0667 6.64126 17.675L5.19959 16.85C4.44126 16.4167 4.18293 15.4417 4.61626 14.6917C5.37459 13.3833 4.75793 12.3167 3.24959 12.3167C2.37459 12.3167 1.66626 11.6 1.66626 10.7333Z" stroke="#727272" stroke-width="1.5" stroke-miterlimit="10" stroke-linecap="round" stroke-linejoin="round"/>
</svg>
