<svg width="20" height="20" viewBox="0 0 20 20" fill="none" xmlns="http://www.w3.org/2000/svg">
<path d="M14.1876 9.36064C14.112 9.32439 14.0357 9.29002 13.9582 9.25627C13.8232 6.76752 12.4632 5.34251 10.1795 5.32814C10.1688 5.32814 10.1588 5.32814 10.1482 5.32814C8.78258 5.32814 7.64633 5.91126 6.94695 6.97189L8.20258 7.83314C8.72508 7.04064 9.54445 6.87189 10.1482 6.87189C10.1551 6.87189 10.162 6.87189 10.1688 6.87189C10.9207 6.87689 11.4882 7.09501 11.8551 7.52189C12.1226 7.83251 12.3013 8.26126 12.3895 8.80251C11.7226 8.68939 11.002 8.65439 10.2313 8.69876C8.06008 8.82377 6.66445 10.09 6.7582 11.8494C6.8057 12.7419 7.2507 13.5094 8.01008 14.0113C8.65258 14.435 9.47945 14.6425 10.3395 14.5956C11.4751 14.5331 12.3657 14.1 12.987 13.3081C13.4588 12.7063 13.7576 11.9269 13.8895 10.945C14.4307 11.2719 14.8313 11.7013 15.0532 12.2181C15.4301 13.0963 15.452 14.5394 14.2745 15.7156C13.2426 16.7463 12.0026 17.1925 10.1282 17.2063C8.04945 17.1906 6.47695 16.5244 5.45445 15.2244C4.49695 14.0075 4.00258 12.25 3.98383 10C4.00258 7.75064 4.49695 5.99251 5.45445 4.77564C6.47695 3.47626 8.04883 2.80939 10.1282 2.79376C12.222 2.80939 13.822 3.47939 14.8832 4.78501C15.4038 5.42564 15.7963 6.23064 16.0545 7.16939L17.5263 6.77689C17.2126 5.62127 16.7195 4.62501 16.0482 3.79939C14.6876 2.12501 12.6976 1.26751 10.1332 1.24939H10.1232C7.56445 1.26689 5.59633 2.12814 4.27445 3.80876C3.0982 5.30439 2.49133 7.38502 2.4707 9.99314V9.99939V10.0056C2.49133 12.6138 3.0982 14.695 4.27445 16.19C5.59633 17.8706 7.56445 18.7319 10.1232 18.7494H10.1332C12.4082 18.7338 14.012 18.1381 15.3332 16.8181C17.0613 15.0913 17.0095 12.9269 16.4401 11.5981C16.0313 10.645 15.252 9.87126 14.187 9.36001L14.1876 9.36064ZM10.2595 13.0538C9.3082 13.1075 8.31945 12.68 8.2707 11.7656C8.23445 11.0875 8.7532 10.3306 10.3182 10.24C10.4976 10.2294 10.6732 10.2244 10.8457 10.2244C11.4138 10.2244 11.9457 10.2794 12.4288 10.385C12.2488 12.6363 11.1913 13.0025 10.2595 13.0538Z" fill="#7B7B7B"/>
</svg>
