<svg width="20" height="20" viewBox="0 0 20 20" fill="none" xmlns="http://www.w3.org/2000/svg">
<path d="M20 14.9996C20 15.5889 19.7659 16.1542 19.3491 16.5709C18.9324 16.9877 18.3671 17.2218 17.7778 17.2218H2.22222C1.63285 17.2218 1.06762 16.9877 0.650874 16.5709C0.234126 16.1542 0 15.5889 0 14.9996V4.99957C0 4.4102 0.234126 3.84496 0.650874 3.42822C1.06762 3.01147 1.63285 2.77734 2.22222 2.77734H17.7778C18.3671 2.77734 18.9324 3.01147 19.3491 3.42822C19.7659 3.84496 20 4.4102 20 4.99957V14.9996Z" fill="#DE2910"/>
<path d="M6.18858 4.98776L6.59747 5.18554L6.92469 4.87109L6.86302 5.32109L7.26302 5.53554L6.81635 5.61554L6.73635 6.0622L6.52191 5.6622L6.07191 5.72387L6.38635 5.39665L6.18858 4.98776ZM8.78024 6.62165L8.58247 7.02998L8.89691 7.35776L8.44747 7.29554L8.23302 7.69609L8.15302 7.24887L7.7058 7.16887L8.10635 6.95443L8.04413 6.50498L8.37191 6.81943L8.78024 6.62165ZM8.24858 8.72109L8.39747 9.14998L8.85135 9.15943L8.48969 9.43332L8.62135 9.86832L8.24858 9.60887L7.8758 9.86832L8.00691 9.43332L7.64524 9.15943L8.09913 9.14998L8.24858 8.72109ZM6.18858 10.5433L6.59747 10.7411L6.92469 10.4266L6.86302 10.8766L7.26302 11.0911L6.81635 11.1711L6.73635 11.6178L6.52191 11.2178L6.07191 11.2794L6.38635 10.9522L6.18858 10.5433ZM3.8908 6.08443L4.40691 7.56832L5.97691 7.60054L4.72524 8.54943L5.18024 10.0528L3.8908 9.15554L2.60135 10.0528L3.05635 8.54943L1.80469 7.60054L3.37469 7.56832L3.8908 6.08443Z" fill="#FFDE02"/>
</svg>
