<svg width="20" height="20" viewBox="0 0 20 20" fill="none" xmlns="http://www.w3.org/2000/svg">
<path d="M17.7778 2.77734H2.22222C1.63285 2.77734 1.06762 3.01147 0.650874 3.42822C0.234126 3.84496 0 4.4102 0 4.99957L0 14.9996C0 15.5889 0.234126 16.1542 0.650874 16.5709C1.06762 16.9877 1.63285 17.2218 2.22222 17.2218H17.7778C18.3671 17.2218 18.9324 16.9877 19.3491 16.5709C19.7659 16.1542 20 15.5889 20 14.9996V4.99957C20 4.4102 19.7659 3.84496 19.3491 3.42822C18.9324 3.01147 18.3671 2.77734 17.7778 2.77734Z" fill="#006C35"/>
<path d="M4.95258 7.80325C5.30369 7.83658 5.1098 7.20936 5.23702 7.09547C5.26091 7.03936 5.30536 7.03881 5.30869 7.10992V7.64214C5.30536 7.81547 5.41925 7.86603 5.50758 7.90214C5.5998 7.89492 5.66091 7.89825 5.69702 7.9877L5.74036 8.90881C5.74036 8.90881 5.95369 8.96992 5.96369 8.39047C5.97425 8.05047 5.89591 7.76603 5.94202 7.69992C5.94369 7.63492 6.02647 7.63103 6.08425 7.6627C6.17591 7.72714 6.21702 7.80714 6.35925 7.77547C6.57647 7.71603 6.70647 7.61047 6.7098 7.44381C6.69702 7.28547 6.67925 7.12714 6.61091 6.96881C6.62036 6.93992 6.56924 6.86547 6.57869 6.83658C6.61758 6.8977 6.67702 6.8927 6.69036 6.83658C6.65369 6.71492 6.59647 6.59825 6.50313 6.5477C6.42647 6.47992 6.31424 6.49381 6.27313 6.63492C6.25424 6.79714 6.33202 6.99047 6.4498 7.1477C6.4748 7.20936 6.51036 7.31158 6.4948 7.40381C6.43202 7.43936 6.36869 7.42492 6.31647 7.36936C6.31647 7.36936 6.14369 7.23992 6.14369 7.21103C6.1898 6.9177 6.15425 6.88436 6.12869 6.80325C6.11091 6.69103 6.05758 6.65492 6.01425 6.57825C5.97091 6.5327 5.91258 6.5327 5.8848 6.57825C5.80813 6.71047 5.84369 6.99492 5.89925 7.12214C5.93869 7.23881 5.9998 7.3127 5.97091 7.3127C5.94702 7.37881 5.89813 7.36325 5.86258 7.28714C5.81147 7.12936 5.80147 6.89436 5.80147 6.78825C5.78591 6.65714 5.76925 6.37658 5.68313 6.30547C5.63036 6.23381 5.55202 6.26825 5.5248 6.33436C5.51925 6.46436 5.51813 6.59492 5.53313 6.71547C5.59202 6.92603 5.61091 7.11158 5.6398 7.3277C5.64758 7.61714 5.47258 7.45325 5.48036 7.30992C5.52091 7.12381 5.51036 6.83047 5.47424 6.75603C5.44591 6.68214 5.41202 6.66325 5.34313 6.67547C5.28869 6.67103 5.14758 6.82547 5.10758 7.08103C5.10758 7.08103 5.07369 7.2127 5.05925 7.32992C5.0398 7.46214 4.95313 7.55547 4.89202 7.31158C4.83925 7.13436 4.80702 6.69714 4.71869 6.79936C4.69313 7.14103 4.66258 7.74214 4.95258 7.80325Z" fill="white"/>
<path d="M5.48115 8.05469C5.19226 8.06024 4.76948 8.43413 4.75781 8.64135C5.06226 8.49469 5.3617 8.35358 5.6717 8.20247C5.6217 8.12747 5.66892 8.06024 5.48115 8.05469Z" fill="white"/>
<path d="M7.07548 9.17209C7.20936 8.72598 7.05381 8.39709 7.12659 8.39876C7.28048 8.56487 7.49603 8.42098 7.54325 8.3632C7.56381 8.33431 7.61436 8.31542 7.64992 8.3532C7.77048 8.43987 7.9827 8.39876 8.02659 8.24653C8.05439 8.09366 8.07147 7.93902 8.0777 7.78376C7.97936 7.81431 7.90603 7.83487 7.89936 7.87542L7.87881 8.00765C7.87048 8.05042 7.78548 8.05209 7.78214 7.99765C7.74492 7.8282 7.59048 7.80598 7.49714 8.06876C7.43436 8.11987 7.32103 8.12987 7.30881 8.05376C7.32381 7.87765 7.2527 7.85376 7.11048 7.93653C7.06492 7.58709 7.01881 7.2532 6.97325 6.90376C7.0327 6.90209 7.08714 6.94598 7.14103 6.8782C7.08159 6.6932 6.95603 6.31542 6.88659 6.2882C6.8527 6.24709 6.82381 6.27265 6.77992 6.2832C6.70548 6.30709 6.63603 6.37153 6.6577 6.49653C6.74603 7.03265 6.80381 7.44098 6.89159 7.97709C6.90492 8.03987 6.8527 8.12265 6.78492 8.11431C6.66992 8.03653 6.64103 7.87876 6.44436 7.88542C6.30159 7.88709 6.13881 8.04153 6.11881 8.19098C6.09492 8.30931 6.08659 8.4382 6.11881 8.54209C6.21881 8.66209 6.33936 8.65042 6.44436 8.6232C6.53048 8.58765 6.60214 8.50098 6.63214 8.52153C6.6527 8.54653 6.63714 8.83153 6.22548 9.05042C5.97603 9.16209 5.7777 9.18765 5.67103 8.98431C5.60492 8.85709 5.67603 8.37376 5.51325 8.48598C5.03159 9.72765 6.64103 9.89987 6.82103 8.53709C6.83825 8.48098 6.90603 8.42487 6.9177 8.51653C6.88048 9.75098 5.6727 9.83598 5.4677 9.44765C5.41659 9.35598 5.40159 9.15265 5.39659 9.03042C5.36603 8.78765 5.23881 8.88098 5.21881 9.12153C5.19825 9.25542 5.20381 9.2932 5.20381 9.42153C5.2677 10.3965 6.82325 9.97765 7.07548 9.17209ZM6.47548 8.32876C6.46548 8.34765 6.42159 8.33987 6.38936 8.33987C6.3527 8.3382 6.33548 8.33209 6.31325 8.30265C6.30325 8.26931 6.33436 8.23765 6.34825 8.21265C6.36548 8.1832 6.45825 8.15265 6.49103 8.23487C6.49698 8.25049 6.49868 8.26742 6.49594 8.28392C6.49321 8.30041 6.48615 8.31588 6.47548 8.32876Z" fill="white"/>
<path d="M7.55495 7.22629C7.65162 7.19073 8.10995 6.66684 8.10995 6.66684C8.08606 6.64629 8.06495 6.63129 8.04106 6.61073C8.01551 6.58851 8.01828 6.56629 8.04106 6.54462C8.1544 6.47851 8.11828 6.33351 8.05884 6.2674C8.02033 6.24875 7.97803 6.23924 7.93525 6.23963C7.89246 6.24001 7.85034 6.25028 7.81217 6.26962C7.73273 6.34573 7.71384 6.46795 7.77662 6.54462C7.83773 6.57351 7.89884 6.63518 7.85828 6.66907C7.67106 6.86907 7.15773 7.21407 7.21717 7.22629C7.22995 7.24295 7.54495 7.2424 7.55495 7.22629ZM7.8944 6.40351C7.92384 6.39629 7.96162 6.4224 7.9794 6.46129C7.99717 6.50018 7.98773 6.5374 7.95884 6.54462H7.95773C7.92884 6.55184 7.89106 6.52573 7.87328 6.48684C7.85606 6.4474 7.86551 6.41073 7.8944 6.40351ZM4.92162 9.58684C4.84606 9.74073 4.81439 9.63518 4.80773 9.54907C4.79926 9.40445 4.80652 9.25934 4.82939 9.11629C4.84828 8.99407 4.8294 9.03129 4.79051 9.08073C4.61884 9.35407 4.60384 9.76295 4.69884 9.88462C4.74884 9.9424 4.83162 9.96795 4.89328 9.94907C5.00106 9.9024 5.04828 9.68351 5.02273 9.60407C4.98606 9.54795 4.95773 9.53907 4.92162 9.58684ZM10.5777 6.69351C10.7755 6.95907 10.9633 7.22962 11.1472 7.50518C11.1835 7.74332 11.2094 7.97795 11.225 8.20907C11.2555 8.65573 11.2644 9.13907 11.2366 9.60962C11.32 9.61295 11.455 9.47407 11.5016 9.27129C11.5322 8.99073 11.4905 8.49129 11.4877 8.32573C11.484 8.22197 11.479 8.11826 11.4727 8.01462C11.6916 8.3724 11.905 8.74684 12.1133 9.16296C12.1894 9.1274 12.1727 8.70184 12.1283 8.64184C11.9616 8.28462 11.7322 7.93129 11.6588 7.79573C11.6316 7.74573 11.5388 7.60351 11.4283 7.44073C11.4184 7.31085 11.4028 7.18147 11.3816 7.05295C11.3472 6.81518 11.48 7.07907 11.4616 6.94073C11.4188 6.70295 11.2866 6.5424 11.1322 6.32462C11.0822 6.25407 11.0838 6.23962 11.0066 6.34184C10.9799 6.40325 10.9673 6.46991 10.97 6.53684C10.9455 6.5016 10.9198 6.46732 10.8927 6.43407L10.64 6.21851C10.5838 6.17851 10.4472 6.10629 10.4227 6.22629C10.412 6.31043 10.4161 6.39581 10.435 6.47851C10.4494 6.53795 10.5355 6.63684 10.5777 6.69351ZM10.9888 6.68018C10.9994 6.72629 11.0105 6.7724 11.0177 6.81962L11.0261 6.86462C11.0027 6.83212 10.9784 6.80026 10.9533 6.76907C10.8622 6.66129 10.9377 6.68462 10.9888 6.68018Z" fill="white"/>
<path d="M12.1718 9.27371C11.9785 9.47537 11.6996 9.72371 11.3963 9.83871C11.3635 9.87537 11.4774 10.0326 11.6241 10.0326C11.8702 10.0037 12.0868 9.86537 12.2874 9.50148C12.3413 9.41704 12.4357 9.23537 12.438 9.09426C12.4563 8.26871 12.3968 7.62593 12.273 7.02926C12.2647 6.98139 12.2669 6.93228 12.2796 6.88537C12.2952 6.86648 12.3496 6.88537 12.3785 6.83871C12.4202 6.79537 12.2668 6.43982 12.1791 6.30315C12.148 6.24204 12.1374 6.20093 12.0857 6.31037C12.0313 6.39926 11.9952 6.55426 11.9996 6.69871C12.1168 7.51148 12.153 8.22315 12.2296 9.03593C12.2357 9.11426 12.2241 9.22871 12.1718 9.27371ZM15.4107 7.2126C15.4024 7.15482 15.3768 7.02037 15.3868 7.00315C15.4024 6.96204 15.483 7.0076 15.5118 6.96037C15.5541 6.9176 15.3041 6.59648 15.2168 6.45982C15.1852 6.39871 15.1746 6.3576 15.123 6.46704C15.0685 6.55593 15.0496 6.71537 15.0713 6.85537C15.2018 7.73815 15.2991 8.40148 15.3191 9.18426C15.3074 9.25871 15.3052 9.29871 15.2702 9.39204C15.193 9.49093 15.108 9.61426 15.0274 9.67426C14.9474 9.73371 14.7768 9.79093 14.7207 9.83482C14.5446 9.93759 14.5441 10.0548 14.6874 10.0587C14.933 10.0298 15.2241 10.0098 15.4246 9.70648C15.4785 9.62204 15.5424 9.3926 15.5452 9.25148C15.5635 8.42593 15.5346 7.80926 15.4107 7.2126ZM13.5491 7.89982C13.5513 7.78648 13.5618 7.63648 13.568 7.5426C13.5707 7.5076 13.5791 7.46815 13.6124 7.45926C13.6463 7.45037 13.7063 7.49371 13.7068 7.45704C13.7002 7.38537 13.6857 7.27871 13.6452 7.22815C13.5896 7.14593 13.4424 7.16593 13.4163 7.29482C13.4168 7.3426 13.4385 7.36815 13.4346 7.41148C13.428 7.43593 13.4024 7.4526 13.3418 7.42371C13.3518 7.41482 13.3024 7.34648 13.3024 7.34648C13.2552 7.3176 13.1918 7.34815 13.1513 7.37426C13.1368 7.40233 13.1281 7.43305 13.1258 7.46456C13.1235 7.49607 13.1276 7.52773 13.138 7.5576C13.2046 7.68371 13.4374 7.8976 13.5491 7.89982Z" fill="white"/>
<path d="M13.4777 6.93361L13.9738 7.54083C14.0099 7.99972 14.0194 8.37528 14.0549 8.83417C14.0499 9.02861 13.9899 9.19806 13.9327 9.2225C13.9327 9.2225 13.8466 9.2725 13.7888 9.2175C13.7466 9.20028 13.5783 8.93695 13.5783 8.93695C13.4922 8.85806 13.4355 8.88028 13.3744 8.93695C13.2055 9.09972 13.1294 9.40528 13.0149 9.61528C12.9849 9.6625 12.9016 9.7025 12.8088 9.61195C12.5738 9.29028 12.7116 8.83306 12.6827 8.95083C12.4733 9.18694 12.5655 9.5775 12.6127 9.66195C12.6816 9.79972 12.7377 9.88861 12.8722 9.95695C12.9944 10.0469 13.0899 9.99028 13.1422 9.9275C13.2655 9.79917 13.2672 9.47417 13.3249 9.40861C13.3649 9.29028 13.4677 9.31028 13.5172 9.36306C13.5628 9.42661 13.6228 9.47856 13.6922 9.51472C13.8072 9.61639 13.9444 9.63472 14.0794 9.54195C14.1716 9.49028 14.2322 9.42306 14.2861 9.29028C14.3461 9.13028 14.3133 8.39472 14.3011 7.95361C14.3872 8.06472 14.4711 8.18083 14.5561 8.29695C14.5933 8.66528 14.6144 9.03194 14.6022 9.40639C14.5933 9.48139 14.8633 9.18417 14.8611 9.04306V8.72861C14.9911 8.92417 15.1177 9.12583 15.2366 9.33917C15.3111 9.30028 15.2866 8.88083 15.2394 8.82306C15.1022 8.59306 14.9194 8.35361 14.7933 8.1825C14.7849 8.16083 14.7805 8.13639 14.7705 8.11583C14.7199 7.99861 14.7516 7.90417 14.7277 7.77972C14.7044 7.65472 14.7105 7.46806 14.6744 7.31972C14.6644 7.26195 14.6344 7.07639 14.6433 7.05917C14.6577 7.0175 14.7133 7.06028 14.7405 7.0125C14.7811 6.96806 14.5999 6.49861 14.5077 6.36417C14.4744 6.30417 14.4144 6.32472 14.3399 6.4225C14.2716 6.48695 14.2972 6.63361 14.3233 6.77306C14.3883 7.11083 14.4427 7.43472 14.4894 7.75528C14.3895 7.62246 14.2886 7.49042 14.1866 7.35917L14.1822 7.33472C14.1822 7.32861 14.1672 7.04361 14.1538 6.97583C14.1516 6.94861 14.1449 6.94028 14.1738 6.94361C14.2044 6.96917 14.2083 6.97083 14.2277 6.97972C14.2588 6.98528 14.2861 6.9325 14.2677 6.88417L13.9805 6.35528C13.9577 6.3325 13.9277 6.30806 13.8916 6.36139C13.8691 6.38088 13.851 6.40503 13.8388 6.43218C13.8265 6.45933 13.8203 6.48882 13.8205 6.51861C13.8294 6.64361 13.8511 6.77139 13.8594 6.89695L13.8716 6.96472C13.8588 6.94972 13.8433 6.93083 13.8366 6.92417C13.5927 6.6675 13.9488 6.8825 13.7899 6.68417C13.6555 6.53639 13.6166 6.49028 13.5011 6.40139C13.4433 6.36417 13.4083 6.29306 13.3894 6.41417C13.3805 6.5204 13.3777 6.62706 13.3811 6.73361C13.3811 6.78472 13.4327 6.87806 13.4777 6.93361ZM8.53273 7.53306C8.67273 7.59083 8.76217 7.32417 8.81995 7.03195C8.85884 6.94972 8.88884 6.94083 8.90884 6.98306C8.90384 7.37195 8.93662 7.45806 9.03662 7.57639C9.25939 7.74861 9.44384 7.59806 9.45884 7.58361L9.63217 7.41028C9.6705 7.36972 9.72217 7.36695 9.77661 7.40306C9.82995 7.45083 9.82273 7.53417 9.93606 7.59195C10.0316 7.63028 10.2361 7.60083 10.2833 7.51861C10.3472 7.40972 10.3627 7.37195 10.3916 7.33083C10.4372 7.27028 10.5149 7.2975 10.5149 7.31639C10.5077 7.35028 10.4622 7.38417 10.4933 7.44472C10.5477 7.48528 10.5599 7.45917 10.5922 7.45028C10.7055 7.39583 10.7899 7.15028 10.7899 7.15028C10.7949 7.05861 10.7438 7.06639 10.7105 7.08528C10.6672 7.11139 10.6644 7.12028 10.6211 7.14695C10.5655 7.15528 10.4583 7.19195 10.4055 7.10972C10.3511 7.01083 10.3499 6.87306 10.3088 6.77361C10.3088 6.76639 10.2366 6.61639 10.3038 6.60694C10.3377 6.61306 10.4094 6.63195 10.4211 6.57195C10.4561 6.51306 10.3449 6.34528 10.2694 6.26028C10.2033 6.18806 10.1116 6.17917 10.0233 6.25306C9.96106 6.31028 9.96995 6.37361 9.95773 6.43417C9.94728 6.47688 9.94712 6.52146 9.95726 6.56425C9.9674 6.60703 9.98755 6.6468 10.0161 6.68028C10.0777 6.80194 10.1905 6.95917 10.1533 7.17917C10.1533 7.17917 10.0877 7.28361 9.97273 7.27028C9.92495 7.25972 9.84717 7.23917 9.80606 6.93361C9.77495 6.70195 9.81384 6.37806 9.7155 6.22639C9.67995 6.13472 9.65439 6.04639 9.56773 6.20306C9.54439 6.26472 9.44439 6.35806 9.51717 6.55083C9.57662 6.6725 9.6005 6.87083 9.57384 7.09195C9.53273 7.15472 9.52384 7.17583 9.46995 7.23861C9.39439 7.31972 9.31273 7.29917 9.24995 7.26861C9.19106 7.22917 9.1455 7.20861 9.11884 7.08306C9.12384 6.88306 9.13495 6.55528 9.09828 6.48583C9.04439 6.37806 8.9555 6.41694 8.91717 6.44972C8.73439 6.61694 8.64439 6.89861 8.58939 7.1225C8.53884 7.28583 8.48495 7.23917 8.44717 7.17306C8.35495 7.08639 8.34884 6.41028 8.23717 6.52194C8.05773 7.02972 8.33828 7.5875 8.53273 7.53306Z" fill="white"/>
<path d="M11.1873 8.62079L11.134 8.59023L10.089 8.58523C10.0351 8.56468 10.0512 8.5469 10.089 8.53245C10.3384 8.49856 10.7823 8.42634 10.8118 8.00023C10.8068 7.77856 10.7162 7.63301 10.444 7.59301C10.2445 7.60856 10.1018 7.80245 10.1245 8.01523C10.1151 8.07301 10.1434 8.18523 10.0851 8.19801C9.70122 8.23301 9.28288 8.47301 9.26899 8.64523C9.24566 8.66134 9.19344 8.61468 9.2001 8.54134C9.18149 8.22767 9.09122 7.92245 8.93621 7.64912C8.8151 7.52801 8.85288 7.56801 8.77177 7.62523C8.71955 7.68523 8.7101 7.72634 8.71288 7.84579C8.71288 7.85023 8.81066 8.12301 8.89344 8.31412C8.94844 8.51023 9.0001 8.73412 8.96288 8.94579C8.83399 9.22579 8.57455 9.4769 8.32455 9.61301C8.19566 9.65468 8.0851 9.63968 8.05788 9.61079C7.97844 9.55745 7.98233 9.45912 7.98844 9.45745C8.19899 9.31023 8.4401 9.1919 8.62899 8.79579C8.68455 8.64468 8.70122 8.55301 8.64621 8.31912C8.63133 8.23656 8.59339 8.15991 8.53677 8.09801C8.57066 8.07579 8.66788 8.14968 8.68288 8.10579C8.6548 7.97773 8.59105 7.86024 8.49899 7.7669C8.42399 7.69856 8.34233 7.69079 8.27344 7.75356C8.19566 7.7969 8.17899 7.95134 8.21621 8.0869C8.25733 8.18912 8.36899 8.20634 8.44899 8.41134C8.44899 8.41579 8.47788 8.56468 8.43677 8.62301C8.40399 8.72523 7.97899 9.05912 7.95566 9.07412C7.94399 9.08856 7.94899 9.0669 7.94733 9.01134C7.94455 8.94356 7.97455 8.78356 7.96622 8.78245C7.82788 8.8719 7.78177 9.14579 7.75677 9.2269C7.40677 9.46856 7.01066 9.64856 6.78177 9.89412C6.66233 10.0802 7.60288 9.68023 7.71233 9.6319C7.73677 9.64968 7.73399 9.73356 7.79955 9.80856C7.89733 9.94079 8.10399 10.0225 8.30677 9.9719C8.64566 9.84912 8.84177 9.61801 9.04066 9.3619C9.06899 9.32023 9.11344 9.28856 9.15455 9.32023C9.29122 9.62634 9.68621 9.84301 10.1957 9.86579C10.314 9.7219 10.2568 9.65245 10.209 9.62245C10.209 9.61801 9.95733 9.52245 9.91899 9.4269C9.89566 9.34023 9.95233 9.26412 10.0657 9.20634C10.3929 9.1669 10.7145 9.12301 11.0262 9.02301C11.0295 8.91856 11.0901 8.7619 11.1318 8.69412C11.1718 8.62523 11.1934 8.64579 11.1873 8.62079ZM10.3279 7.96968C10.3434 7.94356 10.3951 7.94467 10.4434 7.97301C10.4918 8.00134 10.519 8.04523 10.5029 8.07134C10.4873 8.09801 10.4351 8.09634 10.3868 8.06801C10.3384 8.03968 10.3123 7.99634 10.3279 7.96968ZM9.90733 9.02523C9.7951 9.06356 9.68733 9.09356 9.68733 9.25579C9.72899 9.48134 9.6301 9.40412 9.57177 9.37301C9.50288 9.32356 9.30899 9.20412 9.28121 8.94634C9.27677 8.88468 9.3251 8.83301 9.40233 8.83301C9.51844 8.86468 9.6901 8.8669 9.83899 8.88245C9.96066 8.89023 10.0212 8.98579 9.90733 9.02523ZM6.03677 6.52245C6.15677 6.58023 6.38344 6.55579 6.37344 6.36134C6.37344 6.34412 6.36899 6.28634 6.36733 6.27079C6.34288 6.21356 6.27622 6.22745 6.26066 6.2869C6.25566 6.30634 6.26899 6.33745 6.25177 6.34745C6.24177 6.35745 6.20344 6.35134 6.2051 6.29801C6.2051 6.28079 6.19233 6.26245 6.1851 6.2519C6.17733 6.2469 6.17288 6.24523 6.15899 6.24523C6.14233 6.24579 6.14233 6.25023 6.13344 6.26468C6.12955 6.27856 6.12399 6.29301 6.12399 6.30912C6.12177 6.32801 6.11455 6.33467 6.10066 6.33801C6.0851 6.33801 6.08844 6.33967 6.07622 6.33134C6.06844 6.32301 6.05899 6.31968 6.05899 6.30579C6.05874 6.28957 6.05612 6.27347 6.05122 6.25801C6.04418 6.24986 6.03436 6.24449 6.02177 6.2419C5.95622 6.2419 5.95177 6.3169 5.95566 6.34579C5.94955 6.35079 5.94733 6.48523 6.03677 6.52245Z" fill="white"/>
<path d="M9.73099 7.79094C9.73099 7.77372 9.71821 7.75594 9.71099 7.74483C9.70321 7.73983 9.69876 7.73816 9.68488 7.73816C9.66821 7.73872 9.66876 7.74316 9.65932 7.75761C9.65543 7.77205 9.64988 7.78594 9.64988 7.80205C9.64821 7.8215 9.64043 7.82816 9.62654 7.83094C9.61099 7.83094 9.61432 7.83261 9.60154 7.82483C9.59376 7.8165 9.58432 7.81316 9.58432 7.79928C9.58407 7.78306 9.58145 7.76696 9.57654 7.7515C9.5695 7.74335 9.55969 7.73816 9.5471 7.73594C9.48154 7.73594 9.4771 7.81094 9.48043 7.83928C9.47543 7.84483 9.47265 7.97872 9.5621 8.0165C9.68265 8.07372 9.96876 8.04039 9.89876 7.85539C9.89756 7.82497 9.89552 7.79458 9.89265 7.76428C9.86821 7.70705 9.80099 7.7215 9.78599 7.78039C9.78154 7.79983 9.79488 7.83094 9.7771 7.84094C9.76821 7.85094 9.72932 7.84483 9.73099 7.79094ZM11.6182 7.39816C11.7382 7.45594 11.9643 7.4315 11.9543 7.23761C11.9531 7.20719 11.9511 7.17681 11.9482 7.1465C11.9238 7.08928 11.8571 7.10372 11.8421 7.16261C11.8371 7.18205 11.8504 7.21316 11.8327 7.22316C11.8227 7.23316 11.7843 7.22761 11.786 7.17372C11.786 7.1565 11.7732 7.13816 11.766 7.12761C11.7582 7.12261 11.7538 7.12094 11.7393 7.12094C11.7227 7.12205 11.7232 7.12594 11.7138 7.14039C11.7099 7.15483 11.7043 7.16872 11.7043 7.18483C11.7021 7.20428 11.6949 7.21094 11.681 7.21372C11.6654 7.21372 11.6688 7.21539 11.656 7.20761C11.6482 7.19928 11.6393 7.19594 11.6393 7.18205C11.6391 7.16565 11.6365 7.14936 11.6315 7.13372C11.6241 7.12557 11.6141 7.12039 11.6015 7.11816C11.536 7.11816 11.5315 7.19316 11.5354 7.2215C11.5315 7.22705 11.5288 7.36094 11.6182 7.39816ZM11.6993 6.64705C11.7421 6.76705 11.6665 6.8815 11.7115 6.89816C11.7521 6.91705 11.8099 6.77428 11.831 6.64261C11.856 6.53594 11.7799 6.31761 11.6721 6.27261C11.6065 6.25705 11.5132 6.29594 11.5432 6.38372C11.5282 6.42594 11.6754 6.56928 11.6993 6.64705ZM12.8077 9.46039C12.8915 9.46094 12.9882 9.26872 13.0293 9.07816C13.0521 8.81594 13.0138 8.6565 13.0071 8.50205C13.0004 8.34761 12.8332 7.17316 12.7988 7.0565C12.7582 6.83594 12.9615 7.02705 12.9393 6.89872C12.8688 6.73705 12.6938 6.50205 12.6382 6.3615C12.6049 6.3015 12.6193 6.24816 12.5449 6.34594C12.4765 6.57094 12.4527 6.75428 12.4788 6.89428C12.6554 7.8165 12.8365 8.58316 12.8077 9.46039ZM14.8943 7.04928C14.9138 7.10928 14.8649 7.30316 14.9054 7.32094C14.9427 7.34094 14.9949 7.18705 15.0143 7.04428C15.0249 6.96594 14.9677 6.69261 14.8693 6.64372C14.8093 6.62705 14.7243 6.66872 14.7521 6.76428C14.7382 6.81039 14.8727 6.96483 14.8943 7.04928ZM7.60599 9.08039C7.6421 9.09539 7.69154 8.98205 7.71043 8.87705C7.72099 8.81928 7.66543 8.61872 7.57154 8.58261C7.51376 8.57039 7.43488 8.58594 7.45932 8.6715C7.45654 8.71761 7.5871 8.77316 7.59488 8.88039C7.61376 8.92483 7.5671 9.06761 7.60599 9.08039ZM5.07488 6.5165C5.09321 6.56261 5.05654 6.70983 5.09488 6.72372C5.12988 6.73928 5.17932 6.6215 5.19765 6.51316C5.20821 6.45316 5.19988 6.24983 5.06099 6.20816C5.00376 6.19539 4.92432 6.22705 4.95043 6.29983C4.9371 6.33428 5.05432 6.45205 5.07488 6.5165ZM7.79821 7.16816C7.6921 7.22594 7.65043 7.39705 7.7171 7.4965C7.77876 7.58483 7.87654 7.55205 7.88988 7.55205C7.99432 7.56483 8.05599 7.3565 8.05599 7.3565C8.05599 7.3565 8.05932 7.29816 7.93543 7.40872C7.88321 7.41872 7.87654 7.39928 7.86376 7.36928C7.85128 7.31489 7.85694 7.25792 7.87988 7.20705C7.89765 7.15539 7.85765 7.13261 7.79821 7.16816ZM8.59932 6.52761C8.61637 6.51695 8.63102 6.50284 8.6423 6.4862C8.65359 6.46955 8.66128 6.45073 8.66488 6.43094C8.68099 6.34983 8.57876 6.46928 8.56599 6.37872C8.54321 6.29483 8.60876 6.26039 8.67099 6.17928C8.67321 6.12316 8.6721 6.08372 8.59599 6.12928C8.54265 6.16539 8.43599 6.27539 8.43265 6.40205C8.42932 6.47372 8.41599 6.47316 8.46321 6.51872C8.4971 6.56816 8.53099 6.56316 8.59932 6.52761ZM9.32099 6.57094C9.38988 6.38428 9.38988 6.30539 9.39488 6.22594C9.37376 6.10539 9.2921 6.10928 9.23821 6.24316C9.21488 6.29372 9.18765 6.55983 9.1921 6.55983C9.17376 6.63928 9.27488 6.67316 9.32099 6.57094ZM13.8599 7.89483C13.8599 7.89483 13.3027 8.29094 13.2893 8.30483C13.2338 8.35372 13.2615 8.52705 13.2893 8.50705C13.3288 8.52261 13.8893 8.14205 13.8782 8.09761C13.9043 8.09872 13.9171 7.87483 13.8599 7.89483ZM13.7915 8.96928C13.8288 8.98928 13.9271 8.86761 13.9232 8.71594C13.9343 8.63761 13.8949 8.35039 13.7971 8.3015C13.7371 8.28483 13.6571 8.33594 13.6849 8.43094C13.671 8.4765 13.7538 8.63594 13.7754 8.72039C13.7949 8.78094 13.751 8.9515 13.7915 8.96928ZM10.636 9.80039C10.636 9.80539 10.6832 9.84594 10.7388 9.81372C10.8554 9.76872 10.9288 9.72539 11.0921 9.68928C11.1349 9.68872 11.1321 9.57372 11.0643 9.56983C10.976 9.57428 10.8938 9.57872 10.8054 9.64872C10.751 9.66094 10.7421 9.62817 10.7299 9.59817C10.7165 9.52428 10.7604 9.47316 10.751 9.41816C10.7543 9.4215 10.7004 9.37205 10.6454 9.39983C10.6427 9.39983 10.5227 9.48094 10.4843 9.53761C10.4604 9.55594 10.4632 9.5715 10.4704 9.60205C10.4888 9.64428 10.5215 9.6315 10.5582 9.6115C10.6071 9.60483 10.6304 9.63705 10.6265 9.69539C10.6032 9.76928 10.636 9.7965 10.636 9.80039ZM14.2754 9.89261C14.2571 9.92428 14.2449 9.97205 14.3015 9.98705C14.406 10.0165 14.6465 9.85983 14.6465 9.85705C14.6854 9.82761 14.6727 9.77261 14.6693 9.77261C14.6465 9.7465 14.5954 9.7615 14.561 9.75761C14.5449 9.75761 14.4904 9.74928 14.5165 9.7015C14.5349 9.67573 14.5495 9.64749 14.5599 9.61761C14.576 9.5815 14.5621 9.55761 14.5032 9.53817C14.4438 9.52705 14.4199 9.53261 14.3538 9.53817C14.3182 9.54594 14.306 9.5615 14.2993 9.60483C14.3021 9.67039 14.3415 9.66705 14.3827 9.69316C14.4065 9.72372 14.4221 9.7515 14.381 9.80094C14.3421 9.83705 14.3149 9.85705 14.2754 9.89261ZM14.1688 12.7759H13.3354V12.4982C13.3354 12.4245 13.3062 12.3538 13.2541 12.3017C13.202 12.2497 13.1313 12.2204 13.0577 12.2204C12.984 12.2204 12.9133 12.2497 12.8612 12.3017C12.8091 12.3538 12.7799 12.4245 12.7799 12.4982V12.7759H6.11321C6.11321 12.7759 6.11321 13.3315 7.77988 13.3315H12.7799V13.6093C12.7799 13.6829 12.8091 13.7536 12.8612 13.8057C12.9133 13.8578 12.984 13.8871 13.0577 13.8871C13.1313 13.8871 13.202 13.8578 13.2541 13.8057C13.3062 13.7536 13.3354 13.6829 13.3354 13.6093V13.3315H13.891V13.6093C13.891 13.6829 13.9203 13.7536 13.9723 13.8057C14.0244 13.8578 14.0951 13.8871 14.1688 13.8871C14.2424 13.8871 14.3131 13.8578 14.3652 13.8057C14.4173 13.7536 14.4465 13.6829 14.4465 13.6093V13.0537C14.4465 12.98 14.4173 12.9094 14.3652 12.8573C14.3131 12.8052 14.2424 12.7759 14.1688 12.7759Z" fill="white"/>
</svg>
