<svg width="20" height="20" viewBox="0 0 20 20" fill="none" xmlns="http://www.w3.org/2000/svg">
<path d="M14.1663 18.3333H5.83293C2.49959 18.3333 1.66626 17.5 1.66626 14.1666V12.5C1.66626 9.16665 2.49959 8.33331 5.83293 8.33331H14.1663C17.4996 8.33331 18.3329 9.16665 18.3329 12.5V14.1666C18.3329 17.5 17.4996 18.3333 14.1663 18.3333Z" stroke="#727272" stroke-width="1.5" stroke-linecap="round" stroke-linejoin="round"/>
<path d="M5 8.33335V6.66669C5 3.90835 5.83333 1.66669 10 1.66669C13.75 1.66669 15 3.33335 15 5.83335" stroke="#727272" stroke-width="1.5" stroke-linecap="round" stroke-linejoin="round"/>
<path d="M9.99959 15.4167C11.1502 15.4167 12.0829 14.4839 12.0829 13.3333C12.0829 12.1827 11.1502 11.25 9.99959 11.25C8.849 11.25 7.91626 12.1827 7.91626 13.3333C7.91626 14.4839 8.849 15.4167 9.99959 15.4167Z" stroke="#727272" stroke-width="1.5" stroke-linecap="round" stroke-linejoin="round"/>
</svg>
