<svg width="16" height="16" viewBox="0 0 16 16" fill="none" xmlns="http://www.w3.org/2000/svg">
<g opacity="0.5">
<path d="M8 14C11.3137 14 14 11.3137 14 8C14 4.68629 11.3137 2 8 2C4.68629 2 2 4.68629 2 8C2 11.3137 4.68629 14 8 14Z" stroke="#7B7B7B" stroke-linecap="round" stroke-linejoin="round"/>
<path d="M8 11.9C8.41421 11.9 8.75 11.5642 8.75 11.15C8.75 10.7358 8.41421 10.4 8 10.4C7.58579 10.4 7.25 10.7358 7.25 11.15C7.25 11.5642 7.58579 11.9 8 11.9Z" fill="#7B7B7B"/>
<path d="M6.34644 5.82138C6.59964 4.85658 7.38624 4.35738 8.26704 4.40298C9.13704 4.44798 9.94644 4.92618 9.90924 6.03618C9.85584 7.61418 8.17884 7.39998 7.99104 8.89998H7.99764" stroke="#7B7B7B" stroke-linecap="round" stroke-linejoin="round"/>
</g>
</svg>
