<svg width="24" height="24" viewBox="0 0 24 24" fill="none" xmlns="http://www.w3.org/2000/svg">
<path d="M18.0398 13.55C17.6198 13.96 17.3798 14.55 17.4398 15.18C17.5298 16.26 18.5198 17.05 19.5998 17.05H21.4998V18.24C21.4998 20.31 19.8098 22 17.7398 22H6.25976C4.18976 22 2.49976 20.31 2.49976 18.24V11.51C2.49976 9.44001 4.18976 7.75 6.25976 7.75H17.7398C19.8098 7.75 21.4998 9.44001 21.4998 11.51V12.95H19.4798C18.9198 12.95 18.4098 13.17 18.0398 13.55Z" stroke="#727272" stroke-width="1.5" stroke-linecap="round" stroke-linejoin="round"/>
<path d="M2.49988 12.4099V7.83998C2.49988 6.64998 3.22988 5.58994 4.33988 5.16994L12.2799 2.16994C13.5199 1.69994 14.8499 2.61997 14.8499 3.94997V7.74996" stroke="#727272" stroke-width="1.5" stroke-linecap="round" stroke-linejoin="round"/>
<path d="M22.5587 13.9702V16.0302C22.5587 16.5802 22.1187 17.0302 21.5587 17.0502H19.5987C18.5187 17.0502 17.5287 16.2602 17.4387 15.1802C17.3787 14.5502 17.6187 13.9602 18.0387 13.5502C18.4087 13.1702 18.9187 12.9502 19.4787 12.9502H21.5587C22.1187 12.9702 22.5587 13.4202 22.5587 13.9702Z" stroke="#727272" stroke-width="1.5" stroke-linecap="round" stroke-linejoin="round"/>
<path d="M6.99988 12H13.9999" stroke="#727272" stroke-width="1.5" stroke-linecap="round" stroke-linejoin="round"/>
</svg>
